<svg width="406" height="265" viewBox="0 0 406 265" fill="none" xmlns="http://www.w3.org/2000/svg">
<rect width="406" height="265" rx="57" fill="#F4F3F3"/>
<path d="M77.3672 44.7852H72.1406V59H68.625V44.7852H63.4688V41.9375H77.3672V44.7852ZM76.1953 52.543C76.1953 51.2852 76.4375 50.1641 76.9219 49.1797C77.4062 48.1953 78.1016 47.4336 79.0078 46.8945C79.9219 46.3555 80.9805 46.0859 82.1836 46.0859C83.8945 46.0859 85.2891 46.6094 86.3672 47.6562C87.4531 48.7031 88.0586 50.125 88.1836 51.9219L88.207 52.7891C88.207 54.7344 87.6641 56.2969 86.5781 57.4766C85.4922 58.6484 84.0352 59.2344 82.207 59.2344C80.3789 59.2344 78.918 58.6484 77.8242 57.4766C76.7383 56.3047 76.1953 54.7109 76.1953 52.6953V52.543ZM79.582 52.7891C79.582 53.9922 79.8086 54.9141 80.2617 55.5547C80.7148 56.1875 81.3633 56.5039 82.207 56.5039C83.0273 56.5039 83.668 56.1914 84.1289 55.5664C84.5898 54.9336 84.8203 53.9258 84.8203 52.543C84.8203 51.3633 84.5898 50.4492 84.1289 49.8008C83.668 49.1523 83.0195 48.8281 82.1836 48.8281C81.3555 48.8281 80.7148 49.1523 80.2617 49.8008C79.8086 50.4414 79.582 51.4375 79.582 52.7891ZM100.008 56.1758H107.473V59H96.4922V41.9375H100.008V56.1758ZM115.113 59.2344C113.254 59.2344 111.738 58.6641 110.566 57.5234C109.402 56.3828 108.82 54.8633 108.82 52.9648V52.6367C108.82 51.3633 109.066 50.2266 109.559 49.2266C110.051 48.2188 110.746 47.4453 111.645 46.9062C112.551 46.3594 113.582 46.0859 114.738 46.0859C116.473 46.0859 117.836 46.6328 118.828 47.7266C119.828 48.8203 120.328 50.3711 120.328 52.3789V53.7617H112.254C112.363 54.5898 112.691 55.2539 113.238 55.7539C113.793 56.2539 114.492 56.5039 115.336 56.5039C116.641 56.5039 117.66 56.0312 118.395 55.0859L120.059 56.9492C119.551 57.668 118.863 58.2305 117.996 58.6367C117.129 59.0352 116.168 59.2344 115.113 59.2344ZM114.727 48.8281C114.055 48.8281 113.508 49.0547 113.086 49.5078C112.672 49.9609 112.406 50.6094 112.289 51.4531H117V51.1836C116.984 50.4336 116.781 49.8555 116.391 49.4492C116 49.0352 115.445 48.8281 114.727 48.8281ZM129.609 59C129.453 58.6953 129.34 58.3164 129.27 57.8633C128.449 58.7773 127.383 59.2344 126.07 59.2344C124.828 59.2344 123.797 58.875 122.977 58.1562C122.164 57.4375 121.758 56.5312 121.758 55.4375C121.758 54.0938 122.254 53.0625 123.246 52.3438C124.246 51.625 125.688 51.2617 127.57 51.2539H129.129V50.5273C129.129 49.9414 128.977 49.4727 128.672 49.1211C128.375 48.7695 127.902 48.5938 127.254 48.5938C126.684 48.5938 126.234 48.7305 125.906 49.0039C125.586 49.2773 125.426 49.6523 125.426 50.1289H122.039C122.039 49.3945 122.266 48.7148 122.719 48.0898C123.172 47.4648 123.812 46.9766 124.641 46.625C125.469 46.2656 126.398 46.0859 127.43 46.0859C128.992 46.0859 130.23 46.4805 131.145 47.2695C132.066 48.0508 132.527 49.1523 132.527 50.5742V56.0703C132.535 57.2734 132.703 58.1836 133.031 58.8008V59H129.609ZM126.809 56.6445C127.309 56.6445 127.77 56.5352 128.191 56.3164C128.613 56.0898 128.926 55.7891 129.129 55.4141V53.2344H127.863C126.168 53.2344 125.266 53.8203 125.156 54.9922L125.145 55.1914C125.145 55.6133 125.293 55.9609 125.59 56.2344C125.887 56.5078 126.293 56.6445 126.809 56.6445ZM142.254 49.4961C141.793 49.4336 141.387 49.4023 141.035 49.4023C139.754 49.4023 138.914 49.8359 138.516 50.7031V59H135.129V46.3203H138.328L138.422 47.832C139.102 46.668 140.043 46.0859 141.246 46.0859C141.621 46.0859 141.973 46.1367 142.301 46.2383L142.254 49.4961ZM147.012 46.3203L147.117 47.7852C148.023 46.6523 149.238 46.0859 150.762 46.0859C152.105 46.0859 153.105 46.4805 153.762 47.2695C154.418 48.0586 154.754 49.2383 154.77 50.8086V59H151.383V50.8906C151.383 50.1719 151.227 49.6523 150.914 49.332C150.602 49.0039 150.082 48.8398 149.355 48.8398C148.402 48.8398 147.688 49.2461 147.211 50.0586V59H143.824V46.3203H147.012ZM166.5 46.3203L166.605 47.7383C167.504 46.6367 168.719 46.0859 170.25 46.0859C171.883 46.0859 173.004 46.7305 173.613 48.0195C174.504 46.7305 175.773 46.0859 177.422 46.0859C178.797 46.0859 179.82 46.4883 180.492 47.293C181.164 48.0898 181.5 49.293 181.5 50.9023V59H178.102V50.9141C178.102 50.1953 177.961 49.6719 177.68 49.3438C177.398 49.0078 176.902 48.8398 176.191 48.8398C175.176 48.8398 174.473 49.3242 174.082 50.293L174.094 59H170.707V50.9258C170.707 50.1914 170.562 49.6602 170.273 49.332C169.984 49.0039 169.492 48.8398 168.797 48.8398C167.836 48.8398 167.141 49.2383 166.711 50.0352V59H163.324V46.3203H166.5ZM183.586 52.543C183.586 51.2852 183.828 50.1641 184.312 49.1797C184.797 48.1953 185.492 47.4336 186.398 46.8945C187.312 46.3555 188.371 46.0859 189.574 46.0859C191.285 46.0859 192.68 46.6094 193.758 47.6562C194.844 48.7031 195.449 50.125 195.574 51.9219L195.598 52.7891C195.598 54.7344 195.055 56.2969 193.969 57.4766C192.883 58.6484 191.426 59.2344 189.598 59.2344C187.77 59.2344 186.309 58.6484 185.215 57.4766C184.129 56.3047 183.586 54.7109 183.586 52.6953V52.543ZM186.973 52.7891C186.973 53.9922 187.199 54.9141 187.652 55.5547C188.105 56.1875 188.754 56.5039 189.598 56.5039C190.418 56.5039 191.059 56.1914 191.52 55.5664C191.98 54.9336 192.211 53.9258 192.211 52.543C192.211 51.3633 191.98 50.4492 191.52 49.8008C191.059 49.1523 190.41 48.8281 189.574 48.8281C188.746 48.8281 188.105 49.1523 187.652 49.8008C187.199 50.4414 186.973 51.4375 186.973 52.7891ZM204.809 49.4961C204.348 49.4336 203.941 49.4023 203.59 49.4023C202.309 49.4023 201.469 49.8359 201.07 50.7031V59H197.684V46.3203H200.883L200.977 47.832C201.656 46.668 202.598 46.0859 203.801 46.0859C204.176 46.0859 204.527 46.1367 204.855 46.2383L204.809 49.4961ZM212.051 59.2344C210.191 59.2344 208.676 58.6641 207.504 57.5234C206.34 56.3828 205.758 54.8633 205.758 52.9648V52.6367C205.758 51.3633 206.004 50.2266 206.496 49.2266C206.988 48.2188 207.684 47.4453 208.582 46.9062C209.488 46.3594 210.52 46.0859 211.676 46.0859C213.41 46.0859 214.773 46.6328 215.766 47.7266C216.766 48.8203 217.266 50.3711 217.266 52.3789V53.7617H209.191C209.301 54.5898 209.629 55.2539 210.176 55.7539C210.73 56.2539 211.43 56.5039 212.273 56.5039C213.578 56.5039 214.598 56.0312 215.332 55.0859L216.996 56.9492C216.488 57.668 215.801 58.2305 214.934 58.6367C214.066 59.0352 213.105 59.2344 212.051 59.2344ZM211.664 48.8281C210.992 48.8281 210.445 49.0547 210.023 49.5078C209.609 49.9609 209.344 50.6094 209.227 51.4531H213.938V51.1836C213.922 50.4336 213.719 49.8555 213.328 49.4492C212.938 49.0352 212.383 48.8281 211.664 48.8281ZM232.523 59C232.367 58.6953 232.254 58.3164 232.184 57.8633C231.363 58.7773 230.297 59.2344 228.984 59.2344C227.742 59.2344 226.711 58.875 225.891 58.1562C225.078 57.4375 224.672 56.5312 224.672 55.4375C224.672 54.0938 225.168 53.0625 226.16 52.3438C227.16 51.625 228.602 51.2617 230.484 51.2539H232.043V50.5273C232.043 49.9414 231.891 49.4727 231.586 49.1211C231.289 48.7695 230.816 48.5938 230.168 48.5938C229.598 48.5938 229.148 48.7305 228.82 49.0039C228.5 49.2773 228.34 49.6523 228.34 50.1289H224.953C224.953 49.3945 225.18 48.7148 225.633 48.0898C226.086 47.4648 226.727 46.9766 227.555 46.625C228.383 46.2656 229.312 46.0859 230.344 46.0859C231.906 46.0859 233.145 46.4805 234.059 47.2695C234.98 48.0508 235.441 49.1523 235.441 50.5742V56.0703C235.449 57.2734 235.617 58.1836 235.945 58.8008V59H232.523ZM229.723 56.6445C230.223 56.6445 230.684 56.5352 231.105 56.3164C231.527 56.0898 231.84 55.7891 232.043 55.4141V53.2344H230.777C229.082 53.2344 228.18 53.8203 228.07 54.9922L228.059 55.1914C228.059 55.6133 228.207 55.9609 228.504 56.2344C228.801 56.5078 229.207 56.6445 229.723 56.6445ZM249.469 52.7773C249.469 54.8086 249.035 56.3945 248.168 57.5352C247.301 58.668 246.09 59.2344 244.535 59.2344C243.16 59.2344 242.062 58.707 241.242 57.6523L241.09 59H238.043V41H241.43V47.457C242.211 46.543 243.238 46.0859 244.512 46.0859C246.059 46.0859 247.27 46.6562 248.145 47.7969C249.027 48.9297 249.469 50.5273 249.469 52.5898V52.7773ZM246.082 52.5312C246.082 51.25 245.879 50.3164 245.473 49.7305C245.066 49.1367 244.461 48.8398 243.656 48.8398C242.578 48.8398 241.836 49.2812 241.43 50.1641V55.168C241.844 56.0586 242.594 56.5039 243.68 56.5039C244.773 56.5039 245.492 55.9648 245.836 54.8867C246 54.3711 246.082 53.5859 246.082 52.5312ZM251.039 52.543C251.039 51.2852 251.281 50.1641 251.766 49.1797C252.25 48.1953 252.945 47.4336 253.852 46.8945C254.766 46.3555 255.824 46.0859 257.027 46.0859C258.738 46.0859 260.133 46.6094 261.211 47.6562C262.297 48.7031 262.902 50.125 263.027 51.9219L263.051 52.7891C263.051 54.7344 262.508 56.2969 261.422 57.4766C260.336 58.6484 258.879 59.2344 257.051 59.2344C255.223 59.2344 253.762 58.6484 252.668 57.4766C251.582 56.3047 251.039 54.7109 251.039 52.6953V52.543ZM254.426 52.7891C254.426 53.9922 254.652 54.9141 255.105 55.5547C255.559 56.1875 256.207 56.5039 257.051 56.5039C257.871 56.5039 258.512 56.1914 258.973 55.5664C259.434 54.9336 259.664 53.9258 259.664 52.543C259.664 51.3633 259.434 50.4492 258.973 49.8008C258.512 49.1523 257.863 48.8281 257.027 48.8281C256.199 48.8281 255.559 49.1523 255.105 49.8008C254.652 50.4414 254.426 51.4375 254.426 52.7891ZM272.73 57.7109C271.895 58.7266 270.738 59.2344 269.262 59.2344C267.902 59.2344 266.863 58.8438 266.145 58.0625C265.434 57.2812 265.07 56.1367 265.055 54.6289V46.3203H268.441V54.5117C268.441 55.832 269.043 56.4922 270.246 56.4922C271.395 56.4922 272.184 56.0938 272.613 55.2969V46.3203H276.012V59H272.824L272.73 57.7109ZM282.621 43.2031V46.3203H284.789V48.8047H282.621V55.1328C282.621 55.6016 282.711 55.9375 282.891 56.1406C283.07 56.3438 283.414 56.4453 283.922 56.4453C284.297 56.4453 284.629 56.418 284.918 56.3633V58.9297C284.254 59.1328 283.57 59.2344 282.867 59.2344C280.492 59.2344 279.281 58.0352 279.234 55.6367V48.8047H277.383V46.3203H279.234V43.2031H282.621ZM70.8281 82.7695L74.6953 69.9375H78.6094L72.668 87H69L63.082 69.9375H66.9844L70.8281 82.7695ZM86.8125 87C86.6562 86.6953 86.543 86.3164 86.4727 85.8633C85.6523 86.7773 84.5859 87.2344 83.2734 87.2344C82.0312 87.2344 81 86.875 80.1797 86.1562C79.3672 85.4375 78.9609 84.5312 78.9609 83.4375C78.9609 82.0938 79.457 81.0625 80.4492 80.3438C81.4492 79.625 82.8906 79.2617 84.7734 79.2539H86.332V78.5273C86.332 77.9414 86.1797 77.4727 85.875 77.1211C85.5781 76.7695 85.1055 76.5938 84.457 76.5938C83.8867 76.5938 83.4375 76.7305 83.1094 77.0039C82.7891 77.2773 82.6289 77.6523 82.6289 78.1289H79.2422C79.2422 77.3945 79.4688 76.7148 79.9219 76.0898C80.375 75.4648 81.0156 74.9766 81.8438 74.625C82.6719 74.2656 83.6016 74.0859 84.6328 74.0859C86.1953 74.0859 87.4336 74.4805 88.3477 75.2695C89.2695 76.0508 89.7305 77.1523 89.7305 78.5742V84.0703C89.7383 85.2734 89.9062 86.1836 90.2344 86.8008V87H86.8125ZM84.0117 84.6445C84.5117 84.6445 84.9727 84.5352 85.3945 84.3164C85.8164 84.0898 86.1289 83.7891 86.332 83.4141V81.2344H85.0664C83.3711 81.2344 82.4688 81.8203 82.3594 82.9922L82.3477 83.1914C82.3477 83.6133 82.4961 83.9609 82.793 84.2344C83.0898 84.5078 83.4961 84.6445 84.0117 84.6445ZM97.6055 84.5039C98.2305 84.5039 98.7383 84.332 99.1289 83.9883C99.5195 83.6445 99.7227 83.1875 99.7383 82.6172H102.914C102.906 83.4766 102.672 84.2656 102.211 84.9844C101.75 85.6953 101.117 86.25 100.312 86.6484C99.5156 87.0391 98.6328 87.2344 97.6641 87.2344C95.8516 87.2344 94.4219 86.6602 93.375 85.5117C92.3281 84.3555 91.8047 82.7617 91.8047 80.7305V80.5078C91.8047 78.5547 92.3242 76.9961 93.3633 75.832C94.4023 74.668 95.8281 74.0859 97.6406 74.0859C99.2266 74.0859 100.496 74.5391 101.449 75.4453C102.41 76.3438 102.898 77.543 102.914 79.043H99.7383C99.7227 78.3867 99.5195 77.8555 99.1289 77.4492C98.7383 77.0352 98.2227 76.8281 97.582 76.8281C96.793 76.8281 96.1953 77.1172 95.7891 77.6953C95.3906 78.2656 95.1914 79.1953 95.1914 80.4844V80.8359C95.1914 82.1406 95.3906 83.0781 95.7891 83.6484C96.1875 84.2188 96.793 84.5039 97.6055 84.5039ZM110.121 84.5039C110.746 84.5039 111.254 84.332 111.645 83.9883C112.035 83.6445 112.238 83.1875 112.254 82.6172H115.43C115.422 83.4766 115.188 84.2656 114.727 84.9844C114.266 85.6953 113.633 86.25 112.828 86.6484C112.031 87.0391 111.148 87.2344 110.18 87.2344C108.367 87.2344 106.938 86.6602 105.891 85.5117C104.844 84.3555 104.32 82.7617 104.32 80.7305V80.5078C104.32 78.5547 104.84 76.9961 105.879 75.832C106.918 74.668 108.344 74.0859 110.156 74.0859C111.742 74.0859 113.012 74.5391 113.965 75.4453C114.926 76.3438 115.414 77.543 115.43 79.043H112.254C112.238 78.3867 112.035 77.8555 111.645 77.4492C111.254 77.0352 110.738 76.8281 110.098 76.8281C109.309 76.8281 108.711 77.1172 108.305 77.6953C107.906 78.2656 107.707 79.1953 107.707 80.4844V80.8359C107.707 82.1406 107.906 83.0781 108.305 83.6484C108.703 84.2188 109.309 84.5039 110.121 84.5039ZM120.938 87H117.539V74.3203H120.938V87ZM117.34 71.0391C117.34 70.5312 117.508 70.1133 117.844 69.7852C118.188 69.457 118.652 69.293 119.238 69.293C119.816 69.293 120.277 69.457 120.621 69.7852C120.965 70.1133 121.137 70.5312 121.137 71.0391C121.137 71.5547 120.961 71.9766 120.609 72.3047C120.266 72.6328 119.809 72.7969 119.238 72.7969C118.668 72.7969 118.207 72.6328 117.855 72.3047C117.512 71.9766 117.34 71.5547 117.34 71.0391ZM126.855 74.3203L126.961 75.7852C127.867 74.6523 129.082 74.0859 130.605 74.0859C131.949 74.0859 132.949 74.4805 133.605 75.2695C134.262 76.0586 134.598 77.2383 134.613 78.8086V87H131.227V78.8906C131.227 78.1719 131.07 77.6523 130.758 77.332C130.445 77.0039 129.926 76.8398 129.199 76.8398C128.246 76.8398 127.531 77.2461 127.055 78.0586V87H123.668V74.3203H126.855ZM144.539 87C144.383 86.6953 144.27 86.3164 144.199 85.8633C143.379 86.7773 142.312 87.2344 141 87.2344C139.758 87.2344 138.727 86.875 137.906 86.1562C137.094 85.4375 136.688 84.5312 136.688 83.4375C136.688 82.0938 137.184 81.0625 138.176 80.3438C139.176 79.625 140.617 79.2617 142.5 79.2539H144.059V78.5273C144.059 77.9414 143.906 77.4727 143.602 77.1211C143.305 76.7695 142.832 76.5938 142.184 76.5938C141.613 76.5938 141.164 76.7305 140.836 77.0039C140.516 77.2773 140.355 77.6523 140.355 78.1289H136.969C136.969 77.3945 137.195 76.7148 137.648 76.0898C138.102 75.4648 138.742 74.9766 139.57 74.625C140.398 74.2656 141.328 74.0859 142.359 74.0859C143.922 74.0859 145.16 74.4805 146.074 75.2695C146.996 76.0508 147.457 77.1523 147.457 78.5742V84.0703C147.465 85.2734 147.633 86.1836 147.961 86.8008V87H144.539ZM141.738 84.6445C142.238 84.6445 142.699 84.5352 143.121 84.3164C143.543 84.0898 143.855 83.7891 144.059 83.4141V81.2344H142.793C141.098 81.2344 140.195 81.8203 140.086 82.9922L140.074 83.1914C140.074 83.6133 140.223 83.9609 140.52 84.2344C140.816 84.5078 141.223 84.6445 141.738 84.6445ZM154.113 71.2031V74.3203H156.281V76.8047H154.113V83.1328C154.113 83.6016 154.203 83.9375 154.383 84.1406C154.562 84.3438 154.906 84.4453 155.414 84.4453C155.789 84.4453 156.121 84.418 156.41 84.3633V86.9297C155.746 87.1328 155.062 87.2344 154.359 87.2344C151.984 87.2344 150.773 86.0352 150.727 83.6367V76.8047H148.875V74.3203H150.727V71.2031H154.113ZM161.742 87H158.344V74.3203H161.742V87ZM158.145 71.0391C158.145 70.5312 158.312 70.1133 158.648 69.7852C158.992 69.457 159.457 69.293 160.043 69.293C160.621 69.293 161.082 69.457 161.426 69.7852C161.77 70.1133 161.941 70.5312 161.941 71.0391C161.941 71.5547 161.766 71.9766 161.414 72.3047C161.07 72.6328 160.613 72.7969 160.043 72.7969C159.473 72.7969 159.012 72.6328 158.66 72.3047C158.316 71.9766 158.145 71.5547 158.145 71.0391ZM164.016 80.543C164.016 79.2852 164.258 78.1641 164.742 77.1797C165.227 76.1953 165.922 75.4336 166.828 74.8945C167.742 74.3555 168.801 74.0859 170.004 74.0859C171.715 74.0859 173.109 74.6094 174.188 75.6562C175.273 76.7031 175.879 78.125 176.004 79.9219L176.027 80.7891C176.027 82.7344 175.484 84.2969 174.398 85.4766C173.312 86.6484 171.855 87.2344 170.027 87.2344C168.199 87.2344 166.738 86.6484 165.645 85.4766C164.559 84.3047 164.016 82.7109 164.016 80.6953V80.543ZM167.402 80.7891C167.402 81.9922 167.629 82.9141 168.082 83.5547C168.535 84.1875 169.184 84.5039 170.027 84.5039C170.848 84.5039 171.488 84.1914 171.949 83.5664C172.41 82.9336 172.641 81.9258 172.641 80.543C172.641 79.3633 172.41 78.4492 171.949 77.8008C171.488 77.1523 170.84 76.8281 170.004 76.8281C169.176 76.8281 168.535 77.1523 168.082 77.8008C167.629 78.4414 167.402 79.4375 167.402 80.7891ZM181.23 74.3203L181.336 75.7852C182.242 74.6523 183.457 74.0859 184.98 74.0859C186.324 74.0859 187.324 74.4805 187.98 75.2695C188.637 76.0586 188.973 77.2383 188.988 78.8086V87H185.602V78.8906C185.602 78.1719 185.445 77.6523 185.133 77.332C184.82 77.0039 184.301 76.8398 183.574 76.8398C182.621 76.8398 181.906 77.2461 181.43 78.0586V87H178.043V74.3203H181.23ZM198.434 83.4961C198.434 83.082 198.227 82.7578 197.812 82.5234C197.406 82.2812 196.75 82.0664 195.844 81.8789C192.828 81.2461 191.32 79.9648 191.32 78.0352C191.32 76.9102 191.785 75.9727 192.715 75.2227C193.652 74.4648 194.875 74.0859 196.383 74.0859C197.992 74.0859 199.277 74.4648 200.238 75.2227C201.207 75.9805 201.691 76.9648 201.691 78.1758H198.305C198.305 77.6914 198.148 77.293 197.836 76.9805C197.523 76.6602 197.035 76.5 196.371 76.5C195.801 76.5 195.359 76.6289 195.047 76.8867C194.734 77.1445 194.578 77.4727 194.578 77.8711C194.578 78.2461 194.754 78.5508 195.105 78.7852C195.465 79.0117 196.066 79.2109 196.91 79.3828C197.754 79.5469 198.465 79.7344 199.043 79.9453C200.832 80.6016 201.727 81.7383 201.727 83.3555C201.727 84.5117 201.23 85.4492 200.238 86.168C199.246 86.8789 197.965 87.2344 196.395 87.2344C195.332 87.2344 194.387 87.0469 193.559 86.6719C192.738 86.2891 192.094 85.7695 191.625 85.1133C191.156 84.4492 190.922 83.7344 190.922 82.9688H194.133C194.164 83.5703 194.387 84.0312 194.801 84.3516C195.215 84.6719 195.77 84.832 196.465 84.832C197.113 84.832 197.602 84.7109 197.93 84.4688C198.266 84.2188 198.434 83.8945 198.434 83.4961ZM204.797 91.2773L203.027 90.3516L203.449 89.5898C203.973 88.6367 204.242 87.6875 204.258 86.7422V84.1172H207.117L207.105 86.4609C207.098 87.3281 206.879 88.2031 206.449 89.0859C206.02 89.9688 205.469 90.6992 204.797 91.2773ZM219.492 80.9883V87H215.977V69.9375H222.633C223.914 69.9375 225.039 70.1719 226.008 70.6406C226.984 71.1094 227.734 71.7773 228.258 72.6445C228.781 73.5039 229.043 74.4844 229.043 75.5859C229.043 77.2578 228.469 78.5781 227.32 79.5469C226.18 80.5078 224.598 80.9883 222.574 80.9883H219.492ZM219.492 78.1406H222.633C223.562 78.1406 224.27 77.9219 224.754 77.4844C225.246 77.0469 225.492 76.4219 225.492 75.6094C225.492 74.7734 225.246 74.0977 224.754 73.582C224.262 73.0664 223.582 72.8008 222.715 72.7852H219.492V78.1406ZM234.82 87H231.422V69H234.82V87ZM243.457 87.2344C241.598 87.2344 240.082 86.6641 238.91 85.5234C237.746 84.3828 237.164 82.8633 237.164 80.9648V80.6367C237.164 79.3633 237.41 78.2266 237.902 77.2266C238.395 76.2188 239.09 75.4453 239.988 74.9062C240.895 74.3594 241.926 74.0859 243.082 74.0859C244.816 74.0859 246.18 74.6328 247.172 75.7266C248.172 76.8203 248.672 78.3711 248.672 80.3789V81.7617H240.598C240.707 82.5898 241.035 83.2539 241.582 83.7539C242.137 84.2539 242.836 84.5039 243.68 84.5039C244.984 84.5039 246.004 84.0312 246.738 83.0859L248.402 84.9492C247.895 85.668 247.207 86.2305 246.34 86.6367C245.473 87.0352 244.512 87.2344 243.457 87.2344ZM243.07 76.8281C242.398 76.8281 241.852 77.0547 241.43 77.5078C241.016 77.9609 240.75 78.6094 240.633 79.4531H245.344V79.1836C245.328 78.4336 245.125 77.8555 244.734 77.4492C244.344 77.0352 243.789 76.8281 243.07 76.8281ZM257.953 87C257.797 86.6953 257.684 86.3164 257.613 85.8633C256.793 86.7773 255.727 87.2344 254.414 87.2344C253.172 87.2344 252.141 86.875 251.32 86.1562C250.508 85.4375 250.102 84.5312 250.102 83.4375C250.102 82.0938 250.598 81.0625 251.59 80.3438C252.59 79.625 254.031 79.2617 255.914 79.2539H257.473V78.5273C257.473 77.9414 257.32 77.4727 257.016 77.1211C256.719 76.7695 256.246 76.5938 255.598 76.5938C255.027 76.5938 254.578 76.7305 254.25 77.0039C253.93 77.2773 253.77 77.6523 253.77 78.1289H250.383C250.383 77.3945 250.609 76.7148 251.062 76.0898C251.516 75.4648 252.156 74.9766 252.984 74.625C253.812 74.2656 254.742 74.0859 255.773 74.0859C257.336 74.0859 258.574 74.4805 259.488 75.2695C260.41 76.0508 260.871 77.1523 260.871 78.5742V84.0703C260.879 85.2734 261.047 86.1836 261.375 86.8008V87H257.953ZM255.152 84.6445C255.652 84.6445 256.113 84.5352 256.535 84.3164C256.957 84.0898 257.27 83.7891 257.473 83.4141V81.2344H256.207C254.512 81.2344 253.609 81.8203 253.5 82.9922L253.488 83.1914C253.488 83.6133 253.637 83.9609 253.934 84.2344C254.23 84.5078 254.637 84.6445 255.152 84.6445ZM270.34 83.4961C270.34 83.082 270.133 82.7578 269.719 82.5234C269.312 82.2812 268.656 82.0664 267.75 81.8789C264.734 81.2461 263.227 79.9648 263.227 78.0352C263.227 76.9102 263.691 75.9727 264.621 75.2227C265.559 74.4648 266.781 74.0859 268.289 74.0859C269.898 74.0859 271.184 74.4648 272.145 75.2227C273.113 75.9805 273.598 76.9648 273.598 78.1758H270.211C270.211 77.6914 270.055 77.293 269.742 76.9805C269.43 76.6602 268.941 76.5 268.277 76.5C267.707 76.5 267.266 76.6289 266.953 76.8867C266.641 77.1445 266.484 77.4727 266.484 77.8711C266.484 78.2461 266.66 78.5508 267.012 78.7852C267.371 79.0117 267.973 79.2109 268.816 79.3828C269.66 79.5469 270.371 79.7344 270.949 79.9453C272.738 80.6016 273.633 81.7383 273.633 83.3555C273.633 84.5117 273.137 85.4492 272.145 86.168C271.152 86.8789 269.871 87.2344 268.301 87.2344C267.238 87.2344 266.293 87.0469 265.465 86.6719C264.645 86.2891 264 85.7695 263.531 85.1133C263.062 84.4492 262.828 83.7344 262.828 82.9688H266.039C266.07 83.5703 266.293 84.0312 266.707 84.3516C267.121 84.6719 267.676 84.832 268.371 84.832C269.02 84.832 269.508 84.7109 269.836 84.4688C270.172 84.2188 270.34 83.8945 270.34 83.4961ZM281.66 87.2344C279.801 87.2344 278.285 86.6641 277.113 85.5234C275.949 84.3828 275.367 82.8633 275.367 80.9648V80.6367C275.367 79.3633 275.613 78.2266 276.105 77.2266C276.598 76.2188 277.293 75.4453 278.191 74.9062C279.098 74.3594 280.129 74.0859 281.285 74.0859C283.02 74.0859 284.383 74.6328 285.375 75.7266C286.375 76.8203 286.875 78.3711 286.875 80.3789V81.7617H278.801C278.91 82.5898 279.238 83.2539 279.785 83.7539C280.34 84.2539 281.039 84.5039 281.883 84.5039C283.188 84.5039 284.207 84.0312 284.941 83.0859L286.605 84.9492C286.098 85.668 285.41 86.2305 284.543 86.6367C283.676 87.0352 282.715 87.2344 281.66 87.2344ZM281.273 76.8281C280.602 76.8281 280.055 77.0547 279.633 77.5078C279.219 77.9609 278.953 78.6094 278.836 79.4531H283.547V79.1836C283.531 78.4336 283.328 77.8555 282.938 77.4492C282.547 77.0352 281.992 76.8281 281.273 76.8281ZM301.312 82.7695L305.18 69.9375H309.094L303.152 87H299.484L293.566 69.9375H297.469L301.312 82.7695ZM314.062 87H310.664V74.3203H314.062V87ZM310.465 71.0391C310.465 70.5312 310.633 70.1133 310.969 69.7852C311.312 69.457 311.777 69.293 312.363 69.293C312.941 69.293 313.402 69.457 313.746 69.7852C314.09 70.1133 314.262 70.5312 314.262 71.0391C314.262 71.5547 314.086 71.9766 313.734 72.3047C313.391 72.6328 312.934 72.7969 312.363 72.7969C311.793 72.7969 311.332 72.6328 310.98 72.3047C310.637 71.9766 310.465 71.5547 310.465 71.0391ZM323.73 83.4961C323.73 83.082 323.523 82.7578 323.109 82.5234C322.703 82.2812 322.047 82.0664 321.141 81.8789C318.125 81.2461 316.617 79.9648 316.617 78.0352C316.617 76.9102 317.082 75.9727 318.012 75.2227C318.949 74.4648 320.172 74.0859 321.68 74.0859C323.289 74.0859 324.574 74.4648 325.535 75.2227C326.504 75.9805 326.988 76.9648 326.988 78.1758H323.602C323.602 77.6914 323.445 77.293 323.133 76.9805C322.82 76.6602 322.332 76.5 321.668 76.5C321.098 76.5 320.656 76.6289 320.344 76.8867C320.031 77.1445 319.875 77.4727 319.875 77.8711C319.875 78.2461 320.051 78.5508 320.402 78.7852C320.762 79.0117 321.363 79.2109 322.207 79.3828C323.051 79.5469 323.762 79.7344 324.34 79.9453C326.129 80.6016 327.023 81.7383 327.023 83.3555C327.023 84.5117 326.527 85.4492 325.535 86.168C324.543 86.8789 323.262 87.2344 321.691 87.2344C320.629 87.2344 319.684 87.0469 318.855 86.6719C318.035 86.2891 317.391 85.7695 316.922 85.1133C316.453 84.4492 316.219 83.7344 316.219 82.9688H319.43C319.461 83.5703 319.684 84.0312 320.098 84.3516C320.512 84.6719 321.066 84.832 321.762 84.832C322.41 84.832 322.898 84.7109 323.227 84.4688C323.562 84.2188 323.73 83.8945 323.73 83.4961ZM332.789 87H329.391V74.3203H332.789V87ZM329.191 71.0391C329.191 70.5312 329.359 70.1133 329.695 69.7852C330.039 69.457 330.504 69.293 331.09 69.293C331.668 69.293 332.129 69.457 332.473 69.7852C332.816 70.1133 332.988 70.5312 332.988 71.0391C332.988 71.5547 332.812 71.9766 332.461 72.3047C332.117 72.6328 331.66 72.7969 331.09 72.7969C330.52 72.7969 330.059 72.6328 329.707 72.3047C329.363 71.9766 329.191 71.5547 329.191 71.0391ZM339.645 71.2031V74.3203H341.812V76.8047H339.645V83.1328C339.645 83.6016 339.734 83.9375 339.914 84.1406C340.094 84.3438 340.438 84.4453 340.945 84.4453C341.32 84.4453 341.652 84.418 341.941 84.3633V86.9297C341.277 87.1328 340.594 87.2344 339.891 87.2344C337.516 87.2344 336.305 86.0352 336.258 83.6367V76.8047H334.406V74.3203H336.258V71.2031H339.645Z" fill="black"/>
<rect x="26" y="118" width="355" height="82" rx="41" fill="#3ABA38"/>
<rect x="26" y="118" width="355" height="82" rx="41" fill="#3ABA38"/>
<path d="M155.918 161.316C155.785 163.152 155.105 164.598 153.879 165.652C152.66 166.707 151.051 167.234 149.051 167.234C146.863 167.234 145.141 166.5 143.883 165.031C142.633 163.555 142.008 161.531 142.008 158.961V157.918C142.008 156.277 142.297 154.832 142.875 153.582C143.453 152.332 144.277 151.375 145.348 150.711C146.426 150.039 147.676 149.703 149.098 149.703C151.066 149.703 152.652 150.23 153.855 151.285C155.059 152.34 155.754 153.82 155.941 155.727H152.426C152.34 154.625 152.031 153.828 151.5 153.336C150.977 152.836 150.176 152.586 149.098 152.586C147.926 152.586 147.047 153.008 146.461 153.852C145.883 154.688 145.586 155.988 145.57 157.754V159.043C145.57 160.887 145.848 162.234 146.402 163.086C146.965 163.938 147.848 164.363 149.051 164.363C150.137 164.363 150.945 164.117 151.477 163.625C152.016 163.125 152.324 162.355 152.402 161.316H155.918ZM161.578 167H158.18V149H161.578V167ZM167.953 167H164.555V154.32H167.953V167ZM164.355 151.039C164.355 150.531 164.523 150.113 164.859 149.785C165.203 149.457 165.668 149.293 166.254 149.293C166.832 149.293 167.293 149.457 167.637 149.785C167.98 150.113 168.152 150.531 168.152 151.039C168.152 151.555 167.977 151.977 167.625 152.305C167.281 152.633 166.824 152.797 166.254 152.797C165.684 152.797 165.223 152.633 164.871 152.305C164.527 151.977 164.355 151.555 164.355 151.039ZM176.027 164.504C176.652 164.504 177.16 164.332 177.551 163.988C177.941 163.645 178.145 163.188 178.16 162.617H181.336C181.328 163.477 181.094 164.266 180.633 164.984C180.172 165.695 179.539 166.25 178.734 166.648C177.938 167.039 177.055 167.234 176.086 167.234C174.273 167.234 172.844 166.66 171.797 165.512C170.75 164.355 170.227 162.762 170.227 160.73V160.508C170.227 158.555 170.746 156.996 171.785 155.832C172.824 154.668 174.25 154.086 176.062 154.086C177.648 154.086 178.918 154.539 179.871 155.445C180.832 156.344 181.32 157.543 181.336 159.043H178.16C178.145 158.387 177.941 157.855 177.551 157.449C177.16 157.035 176.645 156.828 176.004 156.828C175.215 156.828 174.617 157.117 174.211 157.695C173.812 158.266 173.613 159.195 173.613 160.484V160.836C173.613 162.141 173.812 163.078 174.211 163.648C174.609 164.219 175.215 164.504 176.027 164.504ZM187.875 161.914L186.656 163.133V167H183.27V149H186.656V158.973L187.312 158.129L190.559 154.32H194.625L190.043 159.605L195.023 167H191.133L187.875 161.914ZM205.371 155.703C206.27 154.625 207.398 154.086 208.758 154.086C211.508 154.086 212.902 155.684 212.941 158.879V167H209.555V158.973C209.555 158.246 209.398 157.711 209.086 157.367C208.773 157.016 208.254 156.84 207.527 156.84C206.535 156.84 205.816 157.223 205.371 157.988V167H201.984V149H205.371V155.703ZM221.332 167.234C219.473 167.234 217.957 166.664 216.785 165.523C215.621 164.383 215.039 162.863 215.039 160.965V160.637C215.039 159.363 215.285 158.227 215.777 157.227C216.27 156.219 216.965 155.445 217.863 154.906C218.77 154.359 219.801 154.086 220.957 154.086C222.691 154.086 224.055 154.633 225.047 155.727C226.047 156.82 226.547 158.371 226.547 160.379V161.762H218.473C218.582 162.59 218.91 163.254 219.457 163.754C220.012 164.254 220.711 164.504 221.555 164.504C222.859 164.504 223.879 164.031 224.613 163.086L226.277 164.949C225.77 165.668 225.082 166.23 224.215 166.637C223.348 167.035 222.387 167.234 221.332 167.234ZM220.945 156.828C220.273 156.828 219.727 157.055 219.305 157.508C218.891 157.961 218.625 158.609 218.508 159.453H223.219V159.184C223.203 158.434 223 157.855 222.609 157.449C222.219 157.035 221.664 156.828 220.945 156.828ZM235.605 157.496C235.145 157.434 234.738 157.402 234.387 157.402C233.105 157.402 232.266 157.836 231.867 158.703V167H228.48V154.32H231.68L231.773 155.832C232.453 154.668 233.395 154.086 234.598 154.086C234.973 154.086 235.324 154.137 235.652 154.238L235.605 157.496ZM242.848 167.234C240.988 167.234 239.473 166.664 238.301 165.523C237.137 164.383 236.555 162.863 236.555 160.965V160.637C236.555 159.363 236.801 158.227 237.293 157.227C237.785 156.219 238.48 155.445 239.379 154.906C240.285 154.359 241.316 154.086 242.473 154.086C244.207 154.086 245.57 154.633 246.562 155.727C247.562 156.82 248.062 158.371 248.062 160.379V161.762H239.988C240.098 162.59 240.426 163.254 240.973 163.754C241.527 164.254 242.227 164.504 243.07 164.504C244.375 164.504 245.395 164.031 246.129 163.086L247.793 164.949C247.285 165.668 246.598 166.23 245.73 166.637C244.863 167.035 243.902 167.234 242.848 167.234ZM242.461 156.828C241.789 156.828 241.242 157.055 240.82 157.508C240.406 157.961 240.141 158.609 240.023 159.453H244.734V159.184C244.719 158.434 244.516 157.855 244.125 157.449C243.734 157.035 243.18 156.828 242.461 156.828Z" fill="white"/>
</svg>
