<svg width="406" height="265" viewBox="0 0 406 265" fill="none" xmlns="http://www.w3.org/2000/svg">
<rect width="406" height="265" rx="57" fill="#F4F3F3"/>
<path d="M70.8125 52.0781L73.1094 39.9375H76.6133L72.8281 57H69.2891L66.5117 45.5859L63.7344 57H60.1953L56.4102 39.9375H59.9141L62.2227 52.0547L65.0352 39.9375H68.0117L70.8125 52.0781ZM85.25 57C85.0938 56.6953 84.9805 56.3164 84.9102 55.8633C84.0898 56.7773 83.0234 57.2344 81.7109 57.2344C80.4688 57.2344 79.4375 56.875 78.6172 56.1562C77.8047 55.4375 77.3984 54.5312 77.3984 53.4375C77.3984 52.0938 77.8945 51.0625 78.8867 50.3438C79.8867 49.625 81.3281 49.2617 83.2109 49.2539H84.7695V48.5273C84.7695 47.9414 84.6172 47.4727 84.3125 47.1211C84.0156 46.7695 83.543 46.5938 82.8945 46.5938C82.3242 46.5938 81.875 46.7305 81.5469 47.0039C81.2266 47.2773 81.0664 47.6523 81.0664 48.1289H77.6797C77.6797 47.3945 77.9062 46.7148 78.3594 46.0898C78.8125 45.4648 79.4531 44.9766 80.2812 44.625C81.1094 44.2656 82.0391 44.0859 83.0703 44.0859C84.6328 44.0859 85.8711 44.4805 86.7852 45.2695C87.707 46.0508 88.168 47.1523 88.168 48.5742V54.0703C88.1758 55.2734 88.3438 56.1836 88.6719 56.8008V57H85.25ZM82.4492 54.6445C82.9492 54.6445 83.4102 54.5352 83.832 54.3164C84.2539 54.0898 84.5664 53.7891 84.7695 53.4141V51.2344H83.5039C81.8086 51.2344 80.9062 51.8203 80.7969 52.9922L80.7852 53.1914C80.7852 53.6133 80.9336 53.9609 81.2305 54.2344C81.5273 54.5078 81.9336 54.6445 82.4492 54.6445ZM93.8867 44.3203L93.9922 45.7852C94.8984 44.6523 96.1133 44.0859 97.6367 44.0859C98.9805 44.0859 99.9805 44.4805 100.637 45.2695C101.293 46.0586 101.629 47.2383 101.645 48.8086V57H98.2578V48.8906C98.2578 48.1719 98.1016 47.6523 97.7891 47.332C97.4766 47.0039 96.957 46.8398 96.2305 46.8398C95.2773 46.8398 94.5625 47.2461 94.0859 48.0586V57H90.6992V44.3203H93.8867ZM108.277 41.2031V44.3203H110.445V46.8047H108.277V53.1328C108.277 53.6016 108.367 53.9375 108.547 54.1406C108.727 54.3438 109.07 54.4453 109.578 54.4453C109.953 54.4453 110.285 54.418 110.574 54.3633V56.9297C109.91 57.1328 109.227 57.2344 108.523 57.2344C106.148 57.2344 104.938 56.0352 104.891 53.6367V46.8047H103.039V44.3203H104.891V41.2031H108.277ZM122.363 41.2031V44.3203H124.531V46.8047H122.363V53.1328C122.363 53.6016 122.453 53.9375 122.633 54.1406C122.812 54.3438 123.156 54.4453 123.664 54.4453C124.039 54.4453 124.371 54.418 124.66 54.3633V56.9297C123.996 57.1328 123.312 57.2344 122.609 57.2344C120.234 57.2344 119.023 56.0352 118.977 53.6367V46.8047H117.125V44.3203H118.977V41.2031H122.363ZM125.539 50.543C125.539 49.2852 125.781 48.1641 126.266 47.1797C126.75 46.1953 127.445 45.4336 128.352 44.8945C129.266 44.3555 130.324 44.0859 131.527 44.0859C133.238 44.0859 134.633 44.6094 135.711 45.6562C136.797 46.7031 137.402 48.125 137.527 49.9219L137.551 50.7891C137.551 52.7344 137.008 54.2969 135.922 55.4766C134.836 56.6484 133.379 57.2344 131.551 57.2344C129.723 57.2344 128.262 56.6484 127.168 55.4766C126.082 54.3047 125.539 52.7109 125.539 50.6953V50.543ZM128.926 50.7891C128.926 51.9922 129.152 52.9141 129.605 53.5547C130.059 54.1875 130.707 54.5039 131.551 54.5039C132.371 54.5039 133.012 54.1914 133.473 53.5664C133.934 52.9336 134.164 51.9258 134.164 50.543C134.164 49.3633 133.934 48.4492 133.473 47.8008C133.012 47.1523 132.363 46.8281 131.527 46.8281C130.699 46.8281 130.059 47.1523 129.605 47.8008C129.152 48.4414 128.926 49.4375 128.926 50.7891ZM157.039 50.7773C157.039 52.8086 156.605 54.3945 155.738 55.5352C154.871 56.668 153.66 57.2344 152.105 57.2344C150.73 57.2344 149.633 56.707 148.812 55.6523L148.66 57H145.613V39H149V45.457C149.781 44.543 150.809 44.0859 152.082 44.0859C153.629 44.0859 154.84 44.6562 155.715 45.7969C156.598 46.9297 157.039 48.5273 157.039 50.5898V50.7773ZM153.652 50.5312C153.652 49.25 153.449 48.3164 153.043 47.7305C152.637 47.1367 152.031 46.8398 151.227 46.8398C150.148 46.8398 149.406 47.2812 149 48.1641V53.168C149.414 54.0586 150.164 54.5039 151.25 54.5039C152.344 54.5039 153.062 53.9648 153.406 52.8867C153.57 52.3711 153.652 51.5859 153.652 50.5312ZM158.609 50.543C158.609 49.2852 158.852 48.1641 159.336 47.1797C159.82 46.1953 160.516 45.4336 161.422 44.8945C162.336 44.3555 163.395 44.0859 164.598 44.0859C166.309 44.0859 167.703 44.6094 168.781 45.6562C169.867 46.7031 170.473 48.125 170.598 49.9219L170.621 50.7891C170.621 52.7344 170.078 54.2969 168.992 55.4766C167.906 56.6484 166.449 57.2344 164.621 57.2344C162.793 57.2344 161.332 56.6484 160.238 55.4766C159.152 54.3047 158.609 52.7109 158.609 50.6953V50.543ZM161.996 50.7891C161.996 51.9922 162.223 52.9141 162.676 53.5547C163.129 54.1875 163.777 54.5039 164.621 54.5039C165.441 54.5039 166.082 54.1914 166.543 53.5664C167.004 52.9336 167.234 51.9258 167.234 50.543C167.234 49.3633 167.004 48.4492 166.543 47.8008C166.082 47.1523 165.434 46.8281 164.598 46.8281C163.77 46.8281 163.129 47.1523 162.676 47.8008C162.223 48.4414 161.996 49.4375 161.996 50.7891ZM172.18 50.543C172.18 49.2852 172.422 48.1641 172.906 47.1797C173.391 46.1953 174.086 45.4336 174.992 44.8945C175.906 44.3555 176.965 44.0859 178.168 44.0859C179.879 44.0859 181.273 44.6094 182.352 45.6562C183.438 46.7031 184.043 48.125 184.168 49.9219L184.191 50.7891C184.191 52.7344 183.648 54.2969 182.562 55.4766C181.477 56.6484 180.02 57.2344 178.191 57.2344C176.363 57.2344 174.902 56.6484 173.809 55.4766C172.723 54.3047 172.18 52.7109 172.18 50.6953V50.543ZM175.566 50.7891C175.566 51.9922 175.793 52.9141 176.246 53.5547C176.699 54.1875 177.348 54.5039 178.191 54.5039C179.012 54.5039 179.652 54.1914 180.113 53.5664C180.574 52.9336 180.805 51.9258 180.805 50.543C180.805 49.3633 180.574 48.4492 180.113 47.8008C179.652 47.1523 179.004 46.8281 178.168 46.8281C177.34 46.8281 176.699 47.1523 176.246 47.8008C175.793 48.4414 175.566 49.4375 175.566 50.7891ZM190.883 51.9141L189.664 53.1328V57H186.277V39H189.664V48.9727L190.32 48.1289L193.566 44.3203H197.633L193.051 49.6055L198.031 57H194.141L190.883 51.9141ZM212.422 57C212.266 56.6953 212.152 56.3164 212.082 55.8633C211.262 56.7773 210.195 57.2344 208.883 57.2344C207.641 57.2344 206.609 56.875 205.789 56.1562C204.977 55.4375 204.57 54.5312 204.57 53.4375C204.57 52.0938 205.066 51.0625 206.059 50.3438C207.059 49.625 208.5 49.2617 210.383 49.2539H211.941V48.5273C211.941 47.9414 211.789 47.4727 211.484 47.1211C211.188 46.7695 210.715 46.5938 210.066 46.5938C209.496 46.5938 209.047 46.7305 208.719 47.0039C208.398 47.2773 208.238 47.6523 208.238 48.1289H204.852C204.852 47.3945 205.078 46.7148 205.531 46.0898C205.984 45.4648 206.625 44.9766 207.453 44.625C208.281 44.2656 209.211 44.0859 210.242 44.0859C211.805 44.0859 213.043 44.4805 213.957 45.2695C214.879 46.0508 215.34 47.1523 215.34 48.5742V54.0703C215.348 55.2734 215.516 56.1836 215.844 56.8008V57H212.422ZM209.621 54.6445C210.121 54.6445 210.582 54.5352 211.004 54.3164C211.426 54.0898 211.738 53.7891 211.941 53.4141V51.2344H210.676C208.98 51.2344 208.078 51.8203 207.969 52.9922L207.957 53.1914C207.957 53.6133 208.105 53.9609 208.402 54.2344C208.699 54.5078 209.105 54.6445 209.621 54.6445ZM221.996 41.2031V44.3203H224.164V46.8047H221.996V53.1328C221.996 53.6016 222.086 53.9375 222.266 54.1406C222.445 54.3438 222.789 54.4453 223.297 54.4453C223.672 54.4453 224.004 54.418 224.293 54.3633V56.9297C223.629 57.1328 222.945 57.2344 222.242 57.2344C219.867 57.2344 218.656 56.0352 218.609 53.6367V46.8047H216.758V44.3203H218.609V41.2031H221.996ZM239.375 57C239.219 56.6953 239.105 56.3164 239.035 55.8633C238.215 56.7773 237.148 57.2344 235.836 57.2344C234.594 57.2344 233.562 56.875 232.742 56.1562C231.93 55.4375 231.523 54.5312 231.523 53.4375C231.523 52.0938 232.02 51.0625 233.012 50.3438C234.012 49.625 235.453 49.2617 237.336 49.2539H238.895V48.5273C238.895 47.9414 238.742 47.4727 238.438 47.1211C238.141 46.7695 237.668 46.5938 237.02 46.5938C236.449 46.5938 236 46.7305 235.672 47.0039C235.352 47.2773 235.191 47.6523 235.191 48.1289H231.805C231.805 47.3945 232.031 46.7148 232.484 46.0898C232.938 45.4648 233.578 44.9766 234.406 44.625C235.234 44.2656 236.164 44.0859 237.195 44.0859C238.758 44.0859 239.996 44.4805 240.91 45.2695C241.832 46.0508 242.293 47.1523 242.293 48.5742V54.0703C242.301 55.2734 242.469 56.1836 242.797 56.8008V57H239.375ZM236.574 54.6445C237.074 54.6445 237.535 54.5352 237.957 54.3164C238.379 54.0898 238.691 53.7891 238.895 53.4141V51.2344H237.629C235.934 51.2344 235.031 51.8203 234.922 52.9922L234.91 53.1914C234.91 53.6133 235.059 53.9609 235.355 54.2344C235.652 54.5078 236.059 54.6445 236.574 54.6445ZM264.488 51.3164C264.355 53.1523 263.676 54.5977 262.449 55.6523C261.23 56.707 259.621 57.2344 257.621 57.2344C255.434 57.2344 253.711 56.5 252.453 55.0312C251.203 53.5547 250.578 51.5312 250.578 48.9609V47.918C250.578 46.2773 250.867 44.832 251.445 43.582C252.023 42.332 252.848 41.375 253.918 40.7109C254.996 40.0391 256.246 39.7031 257.668 39.7031C259.637 39.7031 261.223 40.2305 262.426 41.2852C263.629 42.3398 264.324 43.8203 264.512 45.7266H260.996C260.91 44.625 260.602 43.8281 260.07 43.3359C259.547 42.8359 258.746 42.5859 257.668 42.5859C256.496 42.5859 255.617 43.0078 255.031 43.8516C254.453 44.6875 254.156 45.9883 254.141 47.7539V49.043C254.141 50.8867 254.418 52.2344 254.973 53.0859C255.535 53.9375 256.418 54.3633 257.621 54.3633C258.707 54.3633 259.516 54.1172 260.047 53.625C260.586 53.125 260.895 52.3555 260.973 51.3164H264.488ZM270.148 57H266.75V44.3203H270.148V57ZM266.551 41.0391C266.551 40.5312 266.719 40.1133 267.055 39.7852C267.398 39.457 267.863 39.293 268.449 39.293C269.027 39.293 269.488 39.457 269.832 39.7852C270.176 40.1133 270.348 40.5312 270.348 41.0391C270.348 41.5547 270.172 41.9766 269.82 42.3047C269.477 42.6328 269.02 42.7969 268.449 42.7969C267.879 42.7969 267.418 42.6328 267.066 42.3047C266.723 41.9766 266.551 41.5547 266.551 41.0391ZM277.004 41.2031V44.3203H279.172V46.8047H277.004V53.1328C277.004 53.6016 277.094 53.9375 277.273 54.1406C277.453 54.3438 277.797 54.4453 278.305 54.4453C278.68 54.4453 279.012 54.418 279.301 54.3633V56.9297C278.637 57.1328 277.953 57.2344 277.25 57.2344C274.875 57.2344 273.664 56.0352 273.617 53.6367V46.8047H271.766V44.3203H273.617V41.2031H277.004ZM285.793 52.207L288.137 44.3203H291.77L286.672 58.9688L286.391 59.6367C285.633 61.293 284.383 62.1211 282.641 62.1211C282.148 62.1211 281.648 62.0469 281.141 61.8984V59.332L281.656 59.3438C282.297 59.3438 282.773 59.2461 283.086 59.0508C283.406 58.8555 283.656 58.5312 283.836 58.0781L284.234 57.0352L279.793 44.3203H283.438L285.793 52.207ZM62.1172 67.9375L66.5 80.3125L70.8594 67.9375H75.4766V85H71.9492V80.3359L72.3008 72.2852L67.6953 85H65.2812L60.6875 72.2969L61.0391 80.3359V85H57.5234V67.9375H62.1172ZM85.6719 85C85.5156 84.6953 85.4023 84.3164 85.332 83.8633C84.5117 84.7773 83.4453 85.2344 82.1328 85.2344C80.8906 85.2344 79.8594 84.875 79.0391 84.1562C78.2266 83.4375 77.8203 82.5312 77.8203 81.4375C77.8203 80.0938 78.3164 79.0625 79.3086 78.3438C80.3086 77.625 81.75 77.2617 83.6328 77.2539H85.1914V76.5273C85.1914 75.9414 85.0391 75.4727 84.7344 75.1211C84.4375 74.7695 83.9648 74.5938 83.3164 74.5938C82.7461 74.5938 82.2969 74.7305 81.9688 75.0039C81.6484 75.2773 81.4883 75.6523 81.4883 76.1289H78.1016C78.1016 75.3945 78.3281 74.7148 78.7812 74.0898C79.2344 73.4648 79.875 72.9766 80.7031 72.625C81.5312 72.2656 82.4609 72.0859 83.4922 72.0859C85.0547 72.0859 86.293 72.4805 87.207 73.2695C88.1289 74.0508 88.5898 75.1523 88.5898 76.5742V82.0703C88.5977 83.2734 88.7656 84.1836 89.0938 84.8008V85H85.6719ZM82.8711 82.6445C83.3711 82.6445 83.832 82.5352 84.2539 82.3164C84.6758 82.0898 84.9883 81.7891 85.1914 81.4141V79.2344H83.9258C82.2305 79.2344 81.3281 79.8203 81.2188 80.9922L81.207 81.1914C81.207 81.6133 81.3555 81.9609 81.6523 82.2344C81.9492 82.5078 82.3555 82.6445 82.8711 82.6445ZM98.0586 81.4961C98.0586 81.082 97.8516 80.7578 97.4375 80.5234C97.0312 80.2812 96.375 80.0664 95.4688 79.8789C92.4531 79.2461 90.9453 77.9648 90.9453 76.0352C90.9453 74.9102 91.4102 73.9727 92.3398 73.2227C93.2773 72.4648 94.5 72.0859 96.0078 72.0859C97.6172 72.0859 98.9023 72.4648 99.8633 73.2227C100.832 73.9805 101.316 74.9648 101.316 76.1758H97.9297C97.9297 75.6914 97.7734 75.293 97.4609 74.9805C97.1484 74.6602 96.6602 74.5 95.9961 74.5C95.4258 74.5 94.9844 74.6289 94.6719 74.8867C94.3594 75.1445 94.2031 75.4727 94.2031 75.8711C94.2031 76.2461 94.3789 76.5508 94.7305 76.7852C95.0898 77.0117 95.6914 77.2109 96.5352 77.3828C97.3789 77.5469 98.0898 77.7344 98.668 77.9453C100.457 78.6016 101.352 79.7383 101.352 81.3555C101.352 82.5117 100.855 83.4492 99.8633 84.168C98.8711 84.8789 97.5898 85.2344 96.0195 85.2344C94.957 85.2344 94.0117 85.0469 93.1836 84.6719C92.3633 84.2891 91.7188 83.7695 91.25 83.1133C90.7812 82.4492 90.5469 81.7344 90.5469 80.9688H93.7578C93.7891 81.5703 94.0117 82.0312 94.4258 82.3516C94.8398 82.6719 95.3945 82.832 96.0898 82.832C96.7383 82.832 97.2266 82.7109 97.5547 82.4688C97.8906 82.2188 98.0586 81.8945 98.0586 81.4961ZM110.41 81.4961C110.41 81.082 110.203 80.7578 109.789 80.5234C109.383 80.2812 108.727 80.0664 107.82 79.8789C104.805 79.2461 103.297 77.9648 103.297 76.0352C103.297 74.9102 103.762 73.9727 104.691 73.2227C105.629 72.4648 106.852 72.0859 108.359 72.0859C109.969 72.0859 111.254 72.4648 112.215 73.2227C113.184 73.9805 113.668 74.9648 113.668 76.1758H110.281C110.281 75.6914 110.125 75.293 109.812 74.9805C109.5 74.6602 109.012 74.5 108.348 74.5C107.777 74.5 107.336 74.6289 107.023 74.8867C106.711 75.1445 106.555 75.4727 106.555 75.8711C106.555 76.2461 106.73 76.5508 107.082 76.7852C107.441 77.0117 108.043 77.2109 108.887 77.3828C109.73 77.5469 110.441 77.7344 111.02 77.9453C112.809 78.6016 113.703 79.7383 113.703 81.3555C113.703 82.5117 113.207 83.4492 112.215 84.168C111.223 84.8789 109.941 85.2344 108.371 85.2344C107.309 85.2344 106.363 85.0469 105.535 84.6719C104.715 84.2891 104.07 83.7695 103.602 83.1133C103.133 82.4492 102.898 81.7344 102.898 80.9688H106.109C106.141 81.5703 106.363 82.0312 106.777 82.3516C107.191 82.6719 107.746 82.832 108.441 82.832C109.09 82.832 109.578 82.7109 109.906 82.4688C110.242 82.2188 110.41 81.8945 110.41 81.4961ZM122.48 79.0586H115.883V76.3281H122.48V79.0586ZM131.727 80.7695L135.594 67.9375H139.508L133.566 85H129.898L123.98 67.9375H127.883L131.727 80.7695ZM147.711 85C147.555 84.6953 147.441 84.3164 147.371 83.8633C146.551 84.7773 145.484 85.2344 144.172 85.2344C142.93 85.2344 141.898 84.875 141.078 84.1562C140.266 83.4375 139.859 82.5312 139.859 81.4375C139.859 80.0938 140.355 79.0625 141.348 78.3438C142.348 77.625 143.789 77.2617 145.672 77.2539H147.23V76.5273C147.23 75.9414 147.078 75.4727 146.773 75.1211C146.477 74.7695 146.004 74.5938 145.355 74.5938C144.785 74.5938 144.336 74.7305 144.008 75.0039C143.688 75.2773 143.527 75.6523 143.527 76.1289H140.141C140.141 75.3945 140.367 74.7148 140.82 74.0898C141.273 73.4648 141.914 72.9766 142.742 72.625C143.57 72.2656 144.5 72.0859 145.531 72.0859C147.094 72.0859 148.332 72.4805 149.246 73.2695C150.168 74.0508 150.629 75.1523 150.629 76.5742V82.0703C150.637 83.2734 150.805 84.1836 151.133 84.8008V85H147.711ZM144.91 82.6445C145.41 82.6445 145.871 82.5352 146.293 82.3164C146.715 82.0898 147.027 81.7891 147.23 81.4141V79.2344H145.965C144.27 79.2344 143.367 79.8203 143.258 80.9922L143.246 81.1914C143.246 81.6133 143.395 81.9609 143.691 82.2344C143.988 82.5078 144.395 82.6445 144.91 82.6445ZM158.504 82.5039C159.129 82.5039 159.637 82.332 160.027 81.9883C160.418 81.6445 160.621 81.1875 160.637 80.6172H163.812C163.805 81.4766 163.57 82.2656 163.109 82.9844C162.648 83.6953 162.016 84.25 161.211 84.6484C160.414 85.0391 159.531 85.2344 158.562 85.2344C156.75 85.2344 155.32 84.6602 154.273 83.5117C153.227 82.3555 152.703 80.7617 152.703 78.7305V78.5078C152.703 76.5547 153.223 74.9961 154.262 73.832C155.301 72.668 156.727 72.0859 158.539 72.0859C160.125 72.0859 161.395 72.5391 162.348 73.4453C163.309 74.3438 163.797 75.543 163.812 77.043H160.637C160.621 76.3867 160.418 75.8555 160.027 75.4492C159.637 75.0352 159.121 74.8281 158.48 74.8281C157.691 74.8281 157.094 75.1172 156.688 75.6953C156.289 76.2656 156.09 77.1953 156.09 78.4844V78.8359C156.09 80.1406 156.289 81.0781 156.688 81.6484C157.086 82.2188 157.691 82.5039 158.504 82.5039ZM171.02 82.5039C171.645 82.5039 172.152 82.332 172.543 81.9883C172.934 81.6445 173.137 81.1875 173.152 80.6172H176.328C176.32 81.4766 176.086 82.2656 175.625 82.9844C175.164 83.6953 174.531 84.25 173.727 84.6484C172.93 85.0391 172.047 85.2344 171.078 85.2344C169.266 85.2344 167.836 84.6602 166.789 83.5117C165.742 82.3555 165.219 80.7617 165.219 78.7305V78.5078C165.219 76.5547 165.738 74.9961 166.777 73.832C167.816 72.668 169.242 72.0859 171.055 72.0859C172.641 72.0859 173.91 72.5391 174.863 73.4453C175.824 74.3438 176.312 75.543 176.328 77.043H173.152C173.137 76.3867 172.934 75.8555 172.543 75.4492C172.152 75.0352 171.637 74.8281 170.996 74.8281C170.207 74.8281 169.609 75.1172 169.203 75.6953C168.805 76.2656 168.605 77.1953 168.605 78.4844V78.8359C168.605 80.1406 168.805 81.0781 169.203 81.6484C169.602 82.2188 170.207 82.5039 171.02 82.5039ZM181.836 85H178.438V72.3203H181.836V85ZM178.238 69.0391C178.238 68.5312 178.406 68.1133 178.742 67.7852C179.086 67.457 179.551 67.293 180.137 67.293C180.715 67.293 181.176 67.457 181.52 67.7852C181.863 68.1133 182.035 68.5312 182.035 69.0391C182.035 69.5547 181.859 69.9766 181.508 70.3047C181.164 70.6328 180.707 70.7969 180.137 70.7969C179.566 70.7969 179.105 70.6328 178.754 70.3047C178.41 69.9766 178.238 69.5547 178.238 69.0391ZM187.754 72.3203L187.859 73.7852C188.766 72.6523 189.98 72.0859 191.504 72.0859C192.848 72.0859 193.848 72.4805 194.504 73.2695C195.16 74.0586 195.496 75.2383 195.512 76.8086V85H192.125V76.8906C192.125 76.1719 191.969 75.6523 191.656 75.332C191.344 75.0039 190.824 74.8398 190.098 74.8398C189.145 74.8398 188.43 75.2461 187.953 76.0586V85H184.566V72.3203H187.754ZM205.438 85C205.281 84.6953 205.168 84.3164 205.098 83.8633C204.277 84.7773 203.211 85.2344 201.898 85.2344C200.656 85.2344 199.625 84.875 198.805 84.1562C197.992 83.4375 197.586 82.5312 197.586 81.4375C197.586 80.0938 198.082 79.0625 199.074 78.3438C200.074 77.625 201.516 77.2617 203.398 77.2539H204.957V76.5273C204.957 75.9414 204.805 75.4727 204.5 75.1211C204.203 74.7695 203.73 74.5938 203.082 74.5938C202.512 74.5938 202.062 74.7305 201.734 75.0039C201.414 75.2773 201.254 75.6523 201.254 76.1289H197.867C197.867 75.3945 198.094 74.7148 198.547 74.0898C199 73.4648 199.641 72.9766 200.469 72.625C201.297 72.2656 202.227 72.0859 203.258 72.0859C204.82 72.0859 206.059 72.4805 206.973 73.2695C207.895 74.0508 208.355 75.1523 208.355 76.5742V82.0703C208.363 83.2734 208.531 84.1836 208.859 84.8008V85H205.438ZM202.637 82.6445C203.137 82.6445 203.598 82.5352 204.02 82.3164C204.441 82.0898 204.754 81.7891 204.957 81.4141V79.2344H203.691C201.996 79.2344 201.094 79.8203 200.984 80.9922L200.973 81.1914C200.973 81.6133 201.121 81.9609 201.418 82.2344C201.715 82.5078 202.121 82.6445 202.637 82.6445ZM215.012 69.2031V72.3203H217.18V74.8047H215.012V81.1328C215.012 81.6016 215.102 81.9375 215.281 82.1406C215.461 82.3438 215.805 82.4453 216.312 82.4453C216.688 82.4453 217.02 82.418 217.309 82.3633V84.9297C216.645 85.1328 215.961 85.2344 215.258 85.2344C212.883 85.2344 211.672 84.0352 211.625 81.6367V74.8047H209.773V72.3203H211.625V69.2031H215.012ZM222.641 85H219.242V72.3203H222.641V85ZM219.043 69.0391C219.043 68.5312 219.211 68.1133 219.547 67.7852C219.891 67.457 220.355 67.293 220.941 67.293C221.52 67.293 221.98 67.457 222.324 67.7852C222.668 68.1133 222.84 68.5312 222.84 69.0391C222.84 69.5547 222.664 69.9766 222.312 70.3047C221.969 70.6328 221.512 70.7969 220.941 70.7969C220.371 70.7969 219.91 70.6328 219.559 70.3047C219.215 69.9766 219.043 69.5547 219.043 69.0391ZM224.914 78.543C224.914 77.2852 225.156 76.1641 225.641 75.1797C226.125 74.1953 226.82 73.4336 227.727 72.8945C228.641 72.3555 229.699 72.0859 230.902 72.0859C232.613 72.0859 234.008 72.6094 235.086 73.6562C236.172 74.7031 236.777 76.125 236.902 77.9219L236.926 78.7891C236.926 80.7344 236.383 82.2969 235.297 83.4766C234.211 84.6484 232.754 85.2344 230.926 85.2344C229.098 85.2344 227.637 84.6484 226.543 83.4766C225.457 82.3047 224.914 80.7109 224.914 78.6953V78.543ZM228.301 78.7891C228.301 79.9922 228.527 80.9141 228.98 81.5547C229.434 82.1875 230.082 82.5039 230.926 82.5039C231.746 82.5039 232.387 82.1914 232.848 81.5664C233.309 80.9336 233.539 79.9258 233.539 78.543C233.539 77.3633 233.309 76.4492 232.848 75.8008C232.387 75.1523 231.738 74.8281 230.902 74.8281C230.074 74.8281 229.434 75.1523 228.98 75.8008C228.527 76.4414 228.301 77.4375 228.301 78.7891ZM242.129 72.3203L242.234 73.7852C243.141 72.6523 244.355 72.0859 245.879 72.0859C247.223 72.0859 248.223 72.4805 248.879 73.2695C249.535 74.0586 249.871 75.2383 249.887 76.8086V85H246.5V76.8906C246.5 76.1719 246.344 75.6523 246.031 75.332C245.719 75.0039 245.199 74.8398 244.473 74.8398C243.52 74.8398 242.805 75.2461 242.328 76.0586V85H238.941V72.3203H242.129ZM272.059 79.3164C271.926 81.1523 271.246 82.5977 270.02 83.6523C268.801 84.707 267.191 85.2344 265.191 85.2344C263.004 85.2344 261.281 84.5 260.023 83.0312C258.773 81.5547 258.148 79.5312 258.148 76.9609V75.918C258.148 74.2773 258.438 72.832 259.016 71.582C259.594 70.332 260.418 69.375 261.488 68.7109C262.566 68.0391 263.816 67.7031 265.238 67.7031C267.207 67.7031 268.793 68.2305 269.996 69.2852C271.199 70.3398 271.895 71.8203 272.082 73.7266H268.566C268.48 72.625 268.172 71.8281 267.641 71.3359C267.117 70.8359 266.316 70.5859 265.238 70.5859C264.066 70.5859 263.188 71.0078 262.602 71.8516C262.023 72.6875 261.727 73.9883 261.711 75.7539V77.043C261.711 78.8867 261.988 80.2344 262.543 81.0859C263.105 81.9375 263.988 82.3633 265.191 82.3633C266.277 82.3633 267.086 82.1172 267.617 81.625C268.156 81.125 268.465 80.3555 268.543 79.3164H272.059ZM277.719 85H274.32V67H277.719V85ZM284.094 85H280.695V72.3203H284.094V85ZM280.496 69.0391C280.496 68.5312 280.664 68.1133 281 67.7852C281.344 67.457 281.809 67.293 282.395 67.293C282.973 67.293 283.434 67.457 283.777 67.7852C284.121 68.1133 284.293 68.5312 284.293 69.0391C284.293 69.5547 284.117 69.9766 283.766 70.3047C283.422 70.6328 282.965 70.7969 282.395 70.7969C281.824 70.7969 281.363 70.6328 281.012 70.3047C280.668 69.9766 280.496 69.5547 280.496 69.0391ZM290.012 72.3203L290.117 73.7852C291.023 72.6523 292.238 72.0859 293.762 72.0859C295.105 72.0859 296.105 72.4805 296.762 73.2695C297.418 74.0586 297.754 75.2383 297.77 76.8086V85H294.383V76.8906C294.383 76.1719 294.227 75.6523 293.914 75.332C293.602 75.0039 293.082 74.8398 292.355 74.8398C291.402 74.8398 290.688 75.2461 290.211 76.0586V85H286.824V72.3203H290.012ZM303.922 85H300.523V72.3203H303.922V85ZM300.324 69.0391C300.324 68.5312 300.492 68.1133 300.828 67.7852C301.172 67.457 301.637 67.293 302.223 67.293C302.801 67.293 303.262 67.457 303.605 67.7852C303.949 68.1133 304.121 68.5312 304.121 69.0391C304.121 69.5547 303.945 69.9766 303.594 70.3047C303.25 70.6328 302.793 70.7969 302.223 70.7969C301.652 70.7969 301.191 70.6328 300.84 70.3047C300.496 69.9766 300.324 69.5547 300.324 69.0391ZM311.996 82.5039C312.621 82.5039 313.129 82.332 313.52 81.9883C313.91 81.6445 314.113 81.1875 314.129 80.6172H317.305C317.297 81.4766 317.062 82.2656 316.602 82.9844C316.141 83.6953 315.508 84.25 314.703 84.6484C313.906 85.0391 313.023 85.2344 312.055 85.2344C310.242 85.2344 308.812 84.6602 307.766 83.5117C306.719 82.3555 306.195 80.7617 306.195 78.7305V78.5078C306.195 76.5547 306.715 74.9961 307.754 73.832C308.793 72.668 310.219 72.0859 312.031 72.0859C313.617 72.0859 314.887 72.5391 315.84 73.4453C316.801 74.3438 317.289 75.543 317.305 77.043H314.129C314.113 76.3867 313.91 75.8555 313.52 75.4492C313.129 75.0352 312.613 74.8281 311.973 74.8281C311.184 74.8281 310.586 75.1172 310.18 75.6953C309.781 76.2656 309.582 77.1953 309.582 78.4844V78.8359C309.582 80.1406 309.781 81.0781 310.18 81.6484C310.578 82.2188 311.184 82.5039 311.996 82.5039ZM322.004 79.7617C322.004 78.668 322.137 77.7969 322.402 77.1484C322.668 76.5 323.152 75.8633 323.855 75.2383C324.566 74.6055 325.039 74.0938 325.273 73.7031C325.508 73.3047 325.625 72.8867 325.625 72.4492C325.625 71.1289 325.016 70.4688 323.797 70.4688C323.219 70.4688 322.754 70.6484 322.402 71.0078C322.059 71.3594 321.879 71.8477 321.863 72.4727H318.465C318.48 70.9805 318.961 69.8125 319.906 68.9688C320.859 68.125 322.156 67.7031 323.797 67.7031C325.453 67.7031 326.738 68.1055 327.652 68.9102C328.566 69.707 329.023 70.8359 329.023 72.2969C329.023 72.9609 328.875 73.5898 328.578 74.1836C328.281 74.7695 327.762 75.4219 327.02 76.1406L326.07 77.043C325.477 77.6133 325.137 78.2812 325.051 79.0469L325.004 79.7617H322.004ZM321.664 83.3594C321.664 82.8359 321.84 82.4062 322.191 82.0703C322.551 81.7266 323.008 81.5547 323.562 81.5547C324.117 81.5547 324.57 81.7266 324.922 82.0703C325.281 82.4062 325.461 82.8359 325.461 83.3594C325.461 83.875 325.285 84.3008 324.934 84.6367C324.59 84.9727 324.133 85.1406 323.562 85.1406C322.992 85.1406 322.531 84.9727 322.18 84.6367C321.836 84.3008 321.664 83.875 321.664 83.3594Z" fill="black"/>
<rect x="26" y="118" width="355" height="82" rx="41" fill="#3ABA38"/>
<rect x="26" y="118" width="355" height="82" rx="41" fill="#3ABA38"/>
<path d="M155.918 161.316C155.785 163.152 155.105 164.598 153.879 165.652C152.66 166.707 151.051 167.234 149.051 167.234C146.863 167.234 145.141 166.5 143.883 165.031C142.633 163.555 142.008 161.531 142.008 158.961V157.918C142.008 156.277 142.297 154.832 142.875 153.582C143.453 152.332 144.277 151.375 145.348 150.711C146.426 150.039 147.676 149.703 149.098 149.703C151.066 149.703 152.652 150.23 153.855 151.285C155.059 152.34 155.754 153.82 155.941 155.727H152.426C152.34 154.625 152.031 153.828 151.5 153.336C150.977 152.836 150.176 152.586 149.098 152.586C147.926 152.586 147.047 153.008 146.461 153.852C145.883 154.688 145.586 155.988 145.57 157.754V159.043C145.57 160.887 145.848 162.234 146.402 163.086C146.965 163.938 147.848 164.363 149.051 164.363C150.137 164.363 150.945 164.117 151.477 163.625C152.016 163.125 152.324 162.355 152.402 161.316H155.918ZM161.578 167H158.18V149H161.578V167ZM167.953 167H164.555V154.32H167.953V167ZM164.355 151.039C164.355 150.531 164.523 150.113 164.859 149.785C165.203 149.457 165.668 149.293 166.254 149.293C166.832 149.293 167.293 149.457 167.637 149.785C167.98 150.113 168.152 150.531 168.152 151.039C168.152 151.555 167.977 151.977 167.625 152.305C167.281 152.633 166.824 152.797 166.254 152.797C165.684 152.797 165.223 152.633 164.871 152.305C164.527 151.977 164.355 151.555 164.355 151.039ZM176.027 164.504C176.652 164.504 177.16 164.332 177.551 163.988C177.941 163.645 178.145 163.188 178.16 162.617H181.336C181.328 163.477 181.094 164.266 180.633 164.984C180.172 165.695 179.539 166.25 178.734 166.648C177.938 167.039 177.055 167.234 176.086 167.234C174.273 167.234 172.844 166.66 171.797 165.512C170.75 164.355 170.227 162.762 170.227 160.73V160.508C170.227 158.555 170.746 156.996 171.785 155.832C172.824 154.668 174.25 154.086 176.062 154.086C177.648 154.086 178.918 154.539 179.871 155.445C180.832 156.344 181.32 157.543 181.336 159.043H178.16C178.145 158.387 177.941 157.855 177.551 157.449C177.16 157.035 176.645 156.828 176.004 156.828C175.215 156.828 174.617 157.117 174.211 157.695C173.812 158.266 173.613 159.195 173.613 160.484V160.836C173.613 162.141 173.812 163.078 174.211 163.648C174.609 164.219 175.215 164.504 176.027 164.504ZM187.875 161.914L186.656 163.133V167H183.27V149H186.656V158.973L187.312 158.129L190.559 154.32H194.625L190.043 159.605L195.023 167H191.133L187.875 161.914ZM205.371 155.703C206.27 154.625 207.398 154.086 208.758 154.086C211.508 154.086 212.902 155.684 212.941 158.879V167H209.555V158.973C209.555 158.246 209.398 157.711 209.086 157.367C208.773 157.016 208.254 156.84 207.527 156.84C206.535 156.84 205.816 157.223 205.371 157.988V167H201.984V149H205.371V155.703ZM221.332 167.234C219.473 167.234 217.957 166.664 216.785 165.523C215.621 164.383 215.039 162.863 215.039 160.965V160.637C215.039 159.363 215.285 158.227 215.777 157.227C216.27 156.219 216.965 155.445 217.863 154.906C218.77 154.359 219.801 154.086 220.957 154.086C222.691 154.086 224.055 154.633 225.047 155.727C226.047 156.82 226.547 158.371 226.547 160.379V161.762H218.473C218.582 162.59 218.91 163.254 219.457 163.754C220.012 164.254 220.711 164.504 221.555 164.504C222.859 164.504 223.879 164.031 224.613 163.086L226.277 164.949C225.77 165.668 225.082 166.23 224.215 166.637C223.348 167.035 222.387 167.234 221.332 167.234ZM220.945 156.828C220.273 156.828 219.727 157.055 219.305 157.508C218.891 157.961 218.625 158.609 218.508 159.453H223.219V159.184C223.203 158.434 223 157.855 222.609 157.449C222.219 157.035 221.664 156.828 220.945 156.828ZM235.605 157.496C235.145 157.434 234.738 157.402 234.387 157.402C233.105 157.402 232.266 157.836 231.867 158.703V167H228.48V154.32H231.68L231.773 155.832C232.453 154.668 233.395 154.086 234.598 154.086C234.973 154.086 235.324 154.137 235.652 154.238L235.605 157.496ZM242.848 167.234C240.988 167.234 239.473 166.664 238.301 165.523C237.137 164.383 236.555 162.863 236.555 160.965V160.637C236.555 159.363 236.801 158.227 237.293 157.227C237.785 156.219 238.48 155.445 239.379 154.906C240.285 154.359 241.316 154.086 242.473 154.086C244.207 154.086 245.57 154.633 246.562 155.727C247.562 156.82 248.062 158.371 248.062 160.379V161.762H239.988C240.098 162.59 240.426 163.254 240.973 163.754C241.527 164.254 242.227 164.504 243.07 164.504C244.375 164.504 245.395 164.031 246.129 163.086L247.793 164.949C247.285 165.668 246.598 166.23 245.73 166.637C244.863 167.035 243.902 167.234 242.848 167.234ZM242.461 156.828C241.789 156.828 241.242 157.055 240.82 157.508C240.406 157.961 240.141 158.609 240.023 159.453H244.734V159.184C244.719 158.434 244.516 157.855 244.125 157.449C243.734 157.035 243.18 156.828 242.461 156.828Z" fill="white"/>
</svg>
