<svg width="418" height="265" viewBox="0 0 418 265" fill="none" xmlns="http://www.w3.org/2000/svg">
<rect width="406" height="265" rx="57" fill="#F4F3F3"/>
<path d="M62.8125 65.0781L65.1094 52.9375H68.6133L64.8281 70H61.2891L58.5117 58.5859L55.7344 70H52.1953L48.4102 52.9375H51.9141L54.2227 65.0547L57.0352 52.9375H60.0117L62.8125 65.0781ZM77.25 70C77.0938 69.6953 76.9805 69.3164 76.9102 68.8633C76.0898 69.7773 75.0234 70.2344 73.7109 70.2344C72.4688 70.2344 71.4375 69.875 70.6172 69.1562C69.8047 68.4375 69.3984 67.5312 69.3984 66.4375C69.3984 65.0938 69.8945 64.0625 70.8867 63.3438C71.8867 62.625 73.3281 62.2617 75.2109 62.2539H76.7695V61.5273C76.7695 60.9414 76.6172 60.4727 76.3125 60.1211C76.0156 59.7695 75.543 59.5938 74.8945 59.5938C74.3242 59.5938 73.875 59.7305 73.5469 60.0039C73.2266 60.2773 73.0664 60.6523 73.0664 61.1289H69.6797C69.6797 60.3945 69.9062 59.7148 70.3594 59.0898C70.8125 58.4648 71.4531 57.9766 72.2812 57.625C73.1094 57.2656 74.0391 57.0859 75.0703 57.0859C76.6328 57.0859 77.8711 57.4805 78.7852 58.2695C79.707 59.0508 80.168 60.1523 80.168 61.5742V67.0703C80.1758 68.2734 80.3438 69.1836 80.6719 69.8008V70H77.25ZM74.4492 67.6445C74.9492 67.6445 75.4102 67.5352 75.832 67.3164C76.2539 67.0898 76.5664 66.7891 76.7695 66.4141V64.2344H75.5039C73.8086 64.2344 72.9062 64.8203 72.7969 65.9922L72.7852 66.1914C72.7852 66.6133 72.9336 66.9609 73.2305 67.2344C73.5273 67.5078 73.9336 67.6445 74.4492 67.6445ZM85.8867 57.3203L85.9922 58.7852C86.8984 57.6523 88.1133 57.0859 89.6367 57.0859C90.9805 57.0859 91.9805 57.4805 92.6367 58.2695C93.293 59.0586 93.6289 60.2383 93.6445 61.8086V70H90.2578V61.8906C90.2578 61.1719 90.1016 60.6523 89.7891 60.332C89.4766 60.0039 88.957 59.8398 88.2305 59.8398C87.2773 59.8398 86.5625 60.2461 86.0859 61.0586V70H82.6992V57.3203H85.8867ZM100.277 54.2031V57.3203H102.445V59.8047H100.277V66.1328C100.277 66.6016 100.367 66.9375 100.547 67.1406C100.727 67.3438 101.07 67.4453 101.578 67.4453C101.953 67.4453 102.285 67.418 102.574 67.3633V69.9297C101.91 70.1328 101.227 70.2344 100.523 70.2344C98.1484 70.2344 96.9375 69.0352 96.8906 66.6367V59.8047H95.0391V57.3203H96.8906V54.2031H100.277ZM114.363 54.2031V57.3203H116.531V59.8047H114.363V66.1328C114.363 66.6016 114.453 66.9375 114.633 67.1406C114.812 67.3438 115.156 67.4453 115.664 67.4453C116.039 67.4453 116.371 67.418 116.66 67.3633V69.9297C115.996 70.1328 115.312 70.2344 114.609 70.2344C112.234 70.2344 111.023 69.0352 110.977 66.6367V59.8047H109.125V57.3203H110.977V54.2031H114.363ZM117.539 63.543C117.539 62.2852 117.781 61.1641 118.266 60.1797C118.75 59.1953 119.445 58.4336 120.352 57.8945C121.266 57.3555 122.324 57.0859 123.527 57.0859C125.238 57.0859 126.633 57.6094 127.711 58.6562C128.797 59.7031 129.402 61.125 129.527 62.9219L129.551 63.7891C129.551 65.7344 129.008 67.2969 127.922 68.4766C126.836 69.6484 125.379 70.2344 123.551 70.2344C121.723 70.2344 120.262 69.6484 119.168 68.4766C118.082 67.3047 117.539 65.7109 117.539 63.6953V63.543ZM120.926 63.7891C120.926 64.9922 121.152 65.9141 121.605 66.5547C122.059 67.1875 122.707 67.5039 123.551 67.5039C124.371 67.5039 125.012 67.1914 125.473 66.5664C125.934 65.9336 126.164 64.9258 126.164 63.543C126.164 62.3633 125.934 61.4492 125.473 60.8008C125.012 60.1523 124.363 59.8281 123.527 59.8281C122.699 59.8281 122.059 60.1523 121.605 60.8008C121.152 61.4414 120.926 62.4375 120.926 63.7891ZM137.836 70V52.9375H143.812C145.883 52.9375 147.453 53.3359 148.523 54.1328C149.594 54.9219 150.129 56.082 150.129 57.6133C150.129 58.4492 149.914 59.1875 149.484 59.8281C149.055 60.4609 148.457 60.9258 147.691 61.2227C148.566 61.4414 149.254 61.8828 149.754 62.5469C150.262 63.2109 150.516 64.0234 150.516 64.9844C150.516 66.625 149.992 67.8672 148.945 68.7109C147.898 69.5547 146.406 69.9844 144.469 70H137.836ZM141.352 62.5703V67.1758H144.363C145.191 67.1758 145.836 66.9805 146.297 66.5898C146.766 66.1914 147 65.6445 147 64.9492C147 63.3867 146.191 62.5938 144.574 62.5703H141.352ZM141.352 60.0859H143.953C145.727 60.0547 146.613 59.3477 146.613 57.9648C146.613 57.1914 146.387 56.6367 145.934 56.3008C145.488 55.957 144.781 55.7852 143.812 55.7852H141.352V60.0859ZM152.414 63.543C152.414 62.2852 152.656 61.1641 153.141 60.1797C153.625 59.1953 154.32 58.4336 155.227 57.8945C156.141 57.3555 157.199 57.0859 158.402 57.0859C160.113 57.0859 161.508 57.6094 162.586 58.6562C163.672 59.7031 164.277 61.125 164.402 62.9219L164.426 63.7891C164.426 65.7344 163.883 67.2969 162.797 68.4766C161.711 69.6484 160.254 70.2344 158.426 70.2344C156.598 70.2344 155.137 69.6484 154.043 68.4766C152.957 67.3047 152.414 65.7109 152.414 63.6953V63.543ZM155.801 63.7891C155.801 64.9922 156.027 65.9141 156.48 66.5547C156.934 67.1875 157.582 67.5039 158.426 67.5039C159.246 67.5039 159.887 67.1914 160.348 66.5664C160.809 65.9336 161.039 64.9258 161.039 63.543C161.039 62.3633 160.809 61.4492 160.348 60.8008C159.887 60.1523 159.238 59.8281 158.402 59.8281C157.574 59.8281 156.934 60.1523 156.48 60.8008C156.027 61.4414 155.801 62.4375 155.801 63.7891ZM165.984 63.543C165.984 62.2852 166.227 61.1641 166.711 60.1797C167.195 59.1953 167.891 58.4336 168.797 57.8945C169.711 57.3555 170.77 57.0859 171.973 57.0859C173.684 57.0859 175.078 57.6094 176.156 58.6562C177.242 59.7031 177.848 61.125 177.973 62.9219L177.996 63.7891C177.996 65.7344 177.453 67.2969 176.367 68.4766C175.281 69.6484 173.824 70.2344 171.996 70.2344C170.168 70.2344 168.707 69.6484 167.613 68.4766C166.527 67.3047 165.984 65.7109 165.984 63.6953V63.543ZM169.371 63.7891C169.371 64.9922 169.598 65.9141 170.051 66.5547C170.504 67.1875 171.152 67.5039 171.996 67.5039C172.816 67.5039 173.457 67.1914 173.918 66.5664C174.379 65.9336 174.609 64.9258 174.609 63.543C174.609 62.3633 174.379 61.4492 173.918 60.8008C173.457 60.1523 172.809 59.8281 171.973 59.8281C171.145 59.8281 170.504 60.1523 170.051 60.8008C169.598 61.4414 169.371 62.4375 169.371 63.7891ZM184.688 64.9141L183.469 66.1328V70H180.082V52H183.469V61.9727L184.125 61.1289L187.371 57.3203H191.438L186.855 62.6055L191.836 70H187.945L184.688 64.9141ZM206.227 70C206.07 69.6953 205.957 69.3164 205.887 68.8633C205.066 69.7773 204 70.2344 202.688 70.2344C201.445 70.2344 200.414 69.875 199.594 69.1562C198.781 68.4375 198.375 67.5312 198.375 66.4375C198.375 65.0938 198.871 64.0625 199.863 63.3438C200.863 62.625 202.305 62.2617 204.188 62.2539H205.746V61.5273C205.746 60.9414 205.594 60.4727 205.289 60.1211C204.992 59.7695 204.52 59.5938 203.871 59.5938C203.301 59.5938 202.852 59.7305 202.523 60.0039C202.203 60.2773 202.043 60.6523 202.043 61.1289H198.656C198.656 60.3945 198.883 59.7148 199.336 59.0898C199.789 58.4648 200.43 57.9766 201.258 57.625C202.086 57.2656 203.016 57.0859 204.047 57.0859C205.609 57.0859 206.848 57.4805 207.762 58.2695C208.684 59.0508 209.145 60.1523 209.145 61.5742V67.0703C209.152 68.2734 209.32 69.1836 209.648 69.8008V70H206.227ZM203.426 67.6445C203.926 67.6445 204.387 67.5352 204.809 67.3164C205.23 67.0898 205.543 66.7891 205.746 66.4141V64.2344H204.48C202.785 64.2344 201.883 64.8203 201.773 65.9922L201.762 66.1914C201.762 66.6133 201.91 66.9609 202.207 67.2344C202.504 67.5078 202.91 67.6445 203.426 67.6445ZM215.801 54.2031V57.3203H217.969V59.8047H215.801V66.1328C215.801 66.6016 215.891 66.9375 216.07 67.1406C216.25 67.3438 216.594 67.4453 217.102 67.4453C217.477 67.4453 217.809 67.418 218.098 67.3633V69.9297C217.434 70.1328 216.75 70.2344 216.047 70.2344C213.672 70.2344 212.461 69.0352 212.414 66.6367V59.8047H210.562V57.3203H212.414V54.2031H215.801ZM233.18 70C233.023 69.6953 232.91 69.3164 232.84 68.8633C232.02 69.7773 230.953 70.2344 229.641 70.2344C228.398 70.2344 227.367 69.875 226.547 69.1562C225.734 68.4375 225.328 67.5312 225.328 66.4375C225.328 65.0938 225.824 64.0625 226.816 63.3438C227.816 62.625 229.258 62.2617 231.141 62.2539H232.699V61.5273C232.699 60.9414 232.547 60.4727 232.242 60.1211C231.945 59.7695 231.473 59.5938 230.824 59.5938C230.254 59.5938 229.805 59.7305 229.477 60.0039C229.156 60.2773 228.996 60.6523 228.996 61.1289H225.609C225.609 60.3945 225.836 59.7148 226.289 59.0898C226.742 58.4648 227.383 57.9766 228.211 57.625C229.039 57.2656 229.969 57.0859 231 57.0859C232.562 57.0859 233.801 57.4805 234.715 58.2695C235.637 59.0508 236.098 60.1523 236.098 61.5742V67.0703C236.105 68.2734 236.273 69.1836 236.602 69.8008V70H233.18ZM230.379 67.6445C230.879 67.6445 231.34 67.5352 231.762 67.3164C232.184 67.0898 232.496 66.7891 232.699 66.4141V64.2344H231.434C229.738 64.2344 228.836 64.8203 228.727 65.9922L228.715 66.1914C228.715 66.6133 228.863 66.9609 229.16 67.2344C229.457 67.5078 229.863 67.6445 230.379 67.6445ZM248.414 63.9883V70H244.898V52.9375H251.555C252.836 52.9375 253.961 53.1719 254.93 53.6406C255.906 54.1094 256.656 54.7773 257.18 55.6445C257.703 56.5039 257.965 57.4844 257.965 58.5859C257.965 60.2578 257.391 61.5781 256.242 62.5469C255.102 63.5078 253.52 63.9883 251.496 63.9883H248.414ZM248.414 61.1406H251.555C252.484 61.1406 253.191 60.9219 253.676 60.4844C254.168 60.0469 254.414 59.4219 254.414 58.6094C254.414 57.7734 254.168 57.0977 253.676 56.582C253.184 56.0664 252.504 55.8008 251.637 55.7852H248.414V61.1406ZM263.473 58.7031C264.371 57.625 265.5 57.0859 266.859 57.0859C269.609 57.0859 271.004 58.6836 271.043 61.8789V70H267.656V61.9727C267.656 61.2461 267.5 60.7109 267.188 60.3672C266.875 60.0156 266.355 59.8398 265.629 59.8398C264.637 59.8398 263.918 60.2227 263.473 60.9883V70H260.086V52H263.473V58.7031ZM280.945 70C280.789 69.6953 280.676 69.3164 280.605 68.8633C279.785 69.7773 278.719 70.2344 277.406 70.2344C276.164 70.2344 275.133 69.875 274.312 69.1562C273.5 68.4375 273.094 67.5312 273.094 66.4375C273.094 65.0938 273.59 64.0625 274.582 63.3438C275.582 62.625 277.023 62.2617 278.906 62.2539H280.465V61.5273C280.465 60.9414 280.312 60.4727 280.008 60.1211C279.711 59.7695 279.238 59.5938 278.59 59.5938C278.02 59.5938 277.57 59.7305 277.242 60.0039C276.922 60.2773 276.762 60.6523 276.762 61.1289H273.375C273.375 60.3945 273.602 59.7148 274.055 59.0898C274.508 58.4648 275.148 57.9766 275.977 57.625C276.805 57.2656 277.734 57.0859 278.766 57.0859C280.328 57.0859 281.566 57.4805 282.48 58.2695C283.402 59.0508 283.863 60.1523 283.863 61.5742V67.0703C283.871 68.2734 284.039 69.1836 284.367 69.8008V70H280.945ZM278.145 67.6445C278.645 67.6445 279.105 67.5352 279.527 67.3164C279.949 67.0898 280.262 66.7891 280.465 66.4141V64.2344H279.199C277.504 64.2344 276.602 64.8203 276.492 65.9922L276.48 66.1914C276.48 66.6133 276.629 66.9609 276.926 67.2344C277.223 67.5078 277.629 67.6445 278.145 67.6445ZM293.59 60.4961C293.129 60.4336 292.723 60.4023 292.371 60.4023C291.09 60.4023 290.25 60.8359 289.852 61.7031V70H286.465V57.3203H289.664L289.758 58.832C290.438 57.668 291.379 57.0859 292.582 57.0859C292.957 57.0859 293.309 57.1367 293.637 57.2383L293.59 60.4961ZM298.406 57.3203L298.512 58.7383C299.41 57.6367 300.625 57.0859 302.156 57.0859C303.789 57.0859 304.91 57.7305 305.52 59.0195C306.41 57.7305 307.68 57.0859 309.328 57.0859C310.703 57.0859 311.727 57.4883 312.398 58.293C313.07 59.0898 313.406 60.293 313.406 61.9023V70H310.008V61.9141C310.008 61.1953 309.867 60.6719 309.586 60.3438C309.305 60.0078 308.809 59.8398 308.098 59.8398C307.082 59.8398 306.379 60.3242 305.988 61.293L306 70H302.613V61.9258C302.613 61.1914 302.469 60.6602 302.18 60.332C301.891 60.0039 301.398 59.8398 300.703 59.8398C299.742 59.8398 299.047 60.2383 298.617 61.0352V70H295.23V57.3203H298.406ZM323.367 70C323.211 69.6953 323.098 69.3164 323.027 68.8633C322.207 69.7773 321.141 70.2344 319.828 70.2344C318.586 70.2344 317.555 69.875 316.734 69.1562C315.922 68.4375 315.516 67.5312 315.516 66.4375C315.516 65.0938 316.012 64.0625 317.004 63.3438C318.004 62.625 319.445 62.2617 321.328 62.2539H322.887V61.5273C322.887 60.9414 322.734 60.4727 322.43 60.1211C322.133 59.7695 321.66 59.5938 321.012 59.5938C320.441 59.5938 319.992 59.7305 319.664 60.0039C319.344 60.2773 319.184 60.6523 319.184 61.1289H315.797C315.797 60.3945 316.023 59.7148 316.477 59.0898C316.93 58.4648 317.57 57.9766 318.398 57.625C319.227 57.2656 320.156 57.0859 321.188 57.0859C322.75 57.0859 323.988 57.4805 324.902 58.2695C325.824 59.0508 326.285 60.1523 326.285 61.5742V67.0703C326.293 68.2734 326.461 69.1836 326.789 69.8008V70H323.367ZM320.566 67.6445C321.066 67.6445 321.527 67.5352 321.949 67.3164C322.371 67.0898 322.684 66.7891 322.887 66.4141V64.2344H321.621C319.926 64.2344 319.023 64.8203 318.914 65.9922L318.902 66.1914C318.902 66.6133 319.051 66.9609 319.348 67.2344C319.645 67.5078 320.051 67.6445 320.566 67.6445ZM334.16 67.5039C334.785 67.5039 335.293 67.332 335.684 66.9883C336.074 66.6445 336.277 66.1875 336.293 65.6172H339.469C339.461 66.4766 339.227 67.2656 338.766 67.9844C338.305 68.6953 337.672 69.25 336.867 69.6484C336.07 70.0391 335.188 70.2344 334.219 70.2344C332.406 70.2344 330.977 69.6602 329.93 68.5117C328.883 67.3555 328.359 65.7617 328.359 63.7305V63.5078C328.359 61.5547 328.879 59.9961 329.918 58.832C330.957 57.668 332.383 57.0859 334.195 57.0859C335.781 57.0859 337.051 57.5391 338.004 58.4453C338.965 59.3438 339.453 60.543 339.469 62.043H336.293C336.277 61.3867 336.074 60.8555 335.684 60.4492C335.293 60.0352 334.777 59.8281 334.137 59.8281C333.348 59.8281 332.75 60.1172 332.344 60.6953C331.945 61.2656 331.746 62.1953 331.746 63.4844V63.8359C331.746 65.1406 331.945 66.0781 332.344 66.6484C332.742 67.2188 333.348 67.5039 334.16 67.5039ZM346.137 65.207L348.48 57.3203H352.113L347.016 71.9688L346.734 72.6367C345.977 74.293 344.727 75.1211 342.984 75.1211C342.492 75.1211 341.992 75.0469 341.484 74.8984V72.332L342 72.3438C342.641 72.3438 343.117 72.2461 343.43 72.0508C343.75 71.8555 344 71.5312 344.18 71.0781L344.578 70.0352L340.137 57.3203H343.781L346.137 65.207ZM356.215 64.7617C356.215 63.668 356.348 62.7969 356.613 62.1484C356.879 61.5 357.363 60.8633 358.066 60.2383C358.777 59.6055 359.25 59.0938 359.484 58.7031C359.719 58.3047 359.836 57.8867 359.836 57.4492C359.836 56.1289 359.227 55.4688 358.008 55.4688C357.43 55.4688 356.965 55.6484 356.613 56.0078C356.27 56.3594 356.09 56.8477 356.074 57.4727H352.676C352.691 55.9805 353.172 54.8125 354.117 53.9688C355.07 53.125 356.367 52.7031 358.008 52.7031C359.664 52.7031 360.949 53.1055 361.863 53.9102C362.777 54.707 363.234 55.8359 363.234 57.2969C363.234 57.9609 363.086 58.5898 362.789 59.1836C362.492 59.7695 361.973 60.4219 361.23 61.1406L360.281 62.043C359.688 62.6133 359.348 63.2812 359.262 64.0469L359.215 64.7617H356.215ZM355.875 68.3594C355.875 67.8359 356.051 67.4062 356.402 67.0703C356.762 66.7266 357.219 66.5547 357.773 66.5547C358.328 66.5547 358.781 66.7266 359.133 67.0703C359.492 67.4062 359.672 67.8359 359.672 68.3594C359.672 68.875 359.496 69.3008 359.145 69.6367C358.801 69.9727 358.344 70.1406 357.773 70.1406C357.203 70.1406 356.742 69.9727 356.391 69.6367C356.047 69.3008 355.875 68.875 355.875 68.3594Z" fill="black"/>
<rect x="25" y="118" width="355" height="82" rx="41" fill="#3ABA38"/>
<rect x="25" y="118" width="355" height="82" rx="41" fill="#3ABA38"/>
<path d="M154.918 161.316C154.785 163.152 154.105 164.598 152.879 165.652C151.66 166.707 150.051 167.234 148.051 167.234C145.863 167.234 144.141 166.5 142.883 165.031C141.633 163.555 141.008 161.531 141.008 158.961V157.918C141.008 156.277 141.297 154.832 141.875 153.582C142.453 152.332 143.277 151.375 144.348 150.711C145.426 150.039 146.676 149.703 148.098 149.703C150.066 149.703 151.652 150.23 152.855 151.285C154.059 152.34 154.754 153.82 154.941 155.727H151.426C151.34 154.625 151.031 153.828 150.5 153.336C149.977 152.836 149.176 152.586 148.098 152.586C146.926 152.586 146.047 153.008 145.461 153.852C144.883 154.688 144.586 155.988 144.57 157.754V159.043C144.57 160.887 144.848 162.234 145.402 163.086C145.965 163.938 146.848 164.363 148.051 164.363C149.137 164.363 149.945 164.117 150.477 163.625C151.016 163.125 151.324 162.355 151.402 161.316H154.918ZM160.578 167H157.18V149H160.578V167ZM166.953 167H163.555V154.32H166.953V167ZM163.355 151.039C163.355 150.531 163.523 150.113 163.859 149.785C164.203 149.457 164.668 149.293 165.254 149.293C165.832 149.293 166.293 149.457 166.637 149.785C166.98 150.113 167.152 150.531 167.152 151.039C167.152 151.555 166.977 151.977 166.625 152.305C166.281 152.633 165.824 152.797 165.254 152.797C164.684 152.797 164.223 152.633 163.871 152.305C163.527 151.977 163.355 151.555 163.355 151.039ZM175.027 164.504C175.652 164.504 176.16 164.332 176.551 163.988C176.941 163.645 177.145 163.188 177.16 162.617H180.336C180.328 163.477 180.094 164.266 179.633 164.984C179.172 165.695 178.539 166.25 177.734 166.648C176.938 167.039 176.055 167.234 175.086 167.234C173.273 167.234 171.844 166.66 170.797 165.512C169.75 164.355 169.227 162.762 169.227 160.73V160.508C169.227 158.555 169.746 156.996 170.785 155.832C171.824 154.668 173.25 154.086 175.062 154.086C176.648 154.086 177.918 154.539 178.871 155.445C179.832 156.344 180.32 157.543 180.336 159.043H177.16C177.145 158.387 176.941 157.855 176.551 157.449C176.16 157.035 175.645 156.828 175.004 156.828C174.215 156.828 173.617 157.117 173.211 157.695C172.812 158.266 172.613 159.195 172.613 160.484V160.836C172.613 162.141 172.812 163.078 173.211 163.648C173.609 164.219 174.215 164.504 175.027 164.504ZM186.875 161.914L185.656 163.133V167H182.27V149H185.656V158.973L186.312 158.129L189.559 154.32H193.625L189.043 159.605L194.023 167H190.133L186.875 161.914ZM204.371 155.703C205.27 154.625 206.398 154.086 207.758 154.086C210.508 154.086 211.902 155.684 211.941 158.879V167H208.555V158.973C208.555 158.246 208.398 157.711 208.086 157.367C207.773 157.016 207.254 156.84 206.527 156.84C205.535 156.84 204.816 157.223 204.371 157.988V167H200.984V149H204.371V155.703ZM220.332 167.234C218.473 167.234 216.957 166.664 215.785 165.523C214.621 164.383 214.039 162.863 214.039 160.965V160.637C214.039 159.363 214.285 158.227 214.777 157.227C215.27 156.219 215.965 155.445 216.863 154.906C217.77 154.359 218.801 154.086 219.957 154.086C221.691 154.086 223.055 154.633 224.047 155.727C225.047 156.82 225.547 158.371 225.547 160.379V161.762H217.473C217.582 162.59 217.91 163.254 218.457 163.754C219.012 164.254 219.711 164.504 220.555 164.504C221.859 164.504 222.879 164.031 223.613 163.086L225.277 164.949C224.77 165.668 224.082 166.23 223.215 166.637C222.348 167.035 221.387 167.234 220.332 167.234ZM219.945 156.828C219.273 156.828 218.727 157.055 218.305 157.508C217.891 157.961 217.625 158.609 217.508 159.453H222.219V159.184C222.203 158.434 222 157.855 221.609 157.449C221.219 157.035 220.664 156.828 219.945 156.828ZM234.605 157.496C234.145 157.434 233.738 157.402 233.387 157.402C232.105 157.402 231.266 157.836 230.867 158.703V167H227.48V154.32H230.68L230.773 155.832C231.453 154.668 232.395 154.086 233.598 154.086C233.973 154.086 234.324 154.137 234.652 154.238L234.605 157.496ZM241.848 167.234C239.988 167.234 238.473 166.664 237.301 165.523C236.137 164.383 235.555 162.863 235.555 160.965V160.637C235.555 159.363 235.801 158.227 236.293 157.227C236.785 156.219 237.48 155.445 238.379 154.906C239.285 154.359 240.316 154.086 241.473 154.086C243.207 154.086 244.57 154.633 245.562 155.727C246.562 156.82 247.062 158.371 247.062 160.379V161.762H238.988C239.098 162.59 239.426 163.254 239.973 163.754C240.527 164.254 241.227 164.504 242.07 164.504C243.375 164.504 244.395 164.031 245.129 163.086L246.793 164.949C246.285 165.668 245.598 166.23 244.73 166.637C243.863 167.035 242.902 167.234 241.848 167.234ZM241.461 156.828C240.789 156.828 240.242 157.055 239.82 157.508C239.406 157.961 239.141 158.609 239.023 159.453H243.734V159.184C243.719 158.434 243.516 157.855 243.125 157.449C242.734 157.035 242.18 156.828 241.461 156.828Z" fill="white"/>
</svg>
